<svg width="110" height="110" viewBox="0 0 110 110" fill="none" xmlns="http://www.w3.org/2000/svg">
<rect width="110" height="110" fill="#312E38"/>
<path d="M41.3874 73.1042V72.8318H42.1958V73.1042L41.9439 73.1644V74.2432H43.0352V73.1644L42.7832 73.1042V72.8318H43.5916V73.1042L43.3397 73.1644V75.6245L43.5916 75.6847V75.9549H42.7832V75.6847L43.0352 75.6245V74.5758H41.9439V75.6245L42.1958 75.6847V75.9549H41.3874V75.6847L41.6394 75.6245V73.1644L41.3874 73.1042Z" fill="#999591"/>
<path d="M44.9395 75.9549C44.9302 75.8922 44.923 75.8354 44.9179 75.7856C44.9127 75.7355 44.9091 75.6853 44.9071 75.6355C44.8483 75.7399 44.7746 75.827 44.686 75.8969C44.5984 75.9655 44.5047 76 44.4047 76C44.2305 76 44.0981 75.9414 44.0074 75.8242C43.9167 75.7054 43.8714 75.5389 43.8714 75.3242C43.8714 75.1042 43.9353 74.9346 44.0631 74.8158C44.1919 74.6958 44.3681 74.6356 44.5917 74.6356H44.9055V74.3654C44.9055 74.2297 44.8746 74.1222 44.8128 74.0439C44.7509 73.9636 44.6649 73.9235 44.5546 73.9235C44.4784 73.9235 44.4109 73.9373 44.3521 73.9643C44.2944 73.9915 44.2475 74.0288 44.2115 74.0758L44.179 74.3203H43.944V73.8699C44.0203 73.7856 44.1125 73.7185 44.2207 73.6684C44.329 73.617 44.4464 73.5913 44.5732 73.5913C44.7628 73.5913 44.9163 73.6583 45.0338 73.7928C45.1513 73.9273 45.21 74.1194 45.21 74.3698V75.4872C45.21 75.5173 45.21 75.5468 45.21 75.5753C45.2111 75.6038 45.2126 75.6323 45.2147 75.6612L45.3383 75.6847V75.9549H44.9395ZM44.4495 75.6461C44.5505 75.6461 44.6427 75.6126 44.7262 75.5452C44.8097 75.4781 44.8694 75.3973 44.9055 75.3029V74.9212H44.5809C44.4562 74.9212 44.3573 74.961 44.2841 75.0412C44.212 75.1211 44.1759 75.2186 44.1759 75.333C44.1759 75.4346 44.1986 75.5123 44.2439 75.5668C44.2893 75.6195 44.3578 75.6461 44.4495 75.6461Z" fill="#999591"/>
<path d="M45.5919 75.6847L45.8438 75.6245V73.9664L45.5919 73.9066V73.6339H46.1483V75.6245L46.4003 75.6847V75.9549H45.5919V75.6847ZM46.1483 73.0399H45.8438V72.6087H46.1483V73.0399Z" fill="#999591"/>
<path d="M46.6337 73.9066V73.6339H47.1578L47.1871 73.9708C47.2345 73.852 47.2928 73.7593 47.3618 73.6919C47.4319 73.6248 47.5117 73.5913 47.6014 73.5913C47.6251 73.5913 47.6493 73.5941 47.674 73.5997C47.6998 73.6041 47.7194 73.6091 47.7328 73.6148L47.6926 74.0072L47.5195 73.9943C47.4391 73.9943 47.3716 74.021 47.317 74.0736C47.2623 74.1254 47.2201 74.1981 47.1902 74.2924V75.6245L47.4422 75.6847V75.9549H46.6337V75.6847L46.8857 75.6245V73.9664L46.6337 73.9066Z" fill="#999591"/>
<path d="M48.6649 75.6696C48.7658 75.6696 48.8545 75.6267 48.9307 75.5408C49.008 75.4537 49.0467 75.3471 49.0467 75.2214H49.3203L49.3233 75.2343C49.3285 75.4346 49.2641 75.6126 49.1301 75.7684C48.9972 75.9229 48.8421 76 48.6649 76C48.4217 76 48.2356 75.89 48.1068 75.6696C47.979 75.4493 47.9152 75.1729 47.9152 74.8397V74.7494C47.9152 74.419 47.9796 74.1438 48.1084 73.9235C48.2372 73.7019 48.4227 73.5913 48.6649 73.5913C48.7988 73.5913 48.9189 73.622 49.025 73.6834C49.1322 73.7448 49.2208 73.8292 49.2909 73.9364L49.3048 74.4513H49.0621L48.9957 74.0865C48.9596 74.0379 48.9132 73.9987 48.8565 73.9686C48.7999 73.9385 48.736 73.9235 48.6649 73.9235C48.5051 73.9235 48.3907 74.0037 48.3217 74.1639C48.2537 74.3225 48.2197 74.5178 48.2197 74.7494V74.8397C48.2197 75.0769 48.2537 75.275 48.3217 75.4336C48.3897 75.591 48.5041 75.6696 48.6649 75.6696Z" fill="#999591"/>
<path d="M50.8166 75.6117C50.764 75.7361 50.696 75.832 50.6125 75.8991C50.5301 75.9665 50.4348 76 50.3266 76C50.1452 76 50.0035 75.9191 49.9015 75.7577C49.7995 75.596 49.7484 75.3443 49.7484 75.0027V73.9664L49.5568 73.9066V73.6339H50.053V75.0067C50.053 75.2543 50.0792 75.4245 50.1318 75.5173C50.1843 75.6104 50.2663 75.6568 50.3776 75.6568C50.4858 75.6568 50.5749 75.6267 50.645 75.5668C50.7161 75.5051 50.7697 75.4186 50.8058 75.307V73.9664L50.5816 73.9066V73.6339H51.1103V75.6245L51.3019 75.6847V75.9549H50.8367L50.8166 75.6117Z" fill="#999591"/>
<path d="M52.0747 73.0741V73.6339H52.3917V73.9473H52.0747V75.3565C52.0747 75.4653 52.0907 75.5418 52.1227 75.586C52.1558 75.6305 52.199 75.6524 52.2526 75.6524C52.2794 75.6524 52.3093 75.6496 52.3422 75.6439C52.3762 75.6367 52.4045 75.6295 52.4273 75.6223L52.4689 75.9119C52.4401 75.9379 52.398 75.9586 52.3422 75.9743C52.2866 75.9915 52.231 76 52.1754 76C52.0516 76 51.9532 75.9486 51.88 75.8455C51.8069 75.7411 51.7704 75.5781 51.7704 75.3565V73.9473H51.506V73.6339H51.7704V73.0741H52.0747Z" fill="#999591"/>
<path d="M53.9823 74.3633H53.7536L53.7041 74.0846C53.6669 74.0357 53.6201 73.9972 53.5634 73.9686C53.5078 73.9385 53.4443 73.9235 53.3734 73.9235C53.2651 73.9235 53.1847 73.9564 53.1321 74.0222C53.0796 74.0881 53.0533 74.1674 53.0533 74.2604C53.0533 74.352 53.0765 74.4241 53.1228 74.477C53.1692 74.53 53.2635 74.577 53.4058 74.6187C53.617 74.6814 53.7741 74.7673 53.8772 74.876C53.9803 74.9832 54.0318 75.1277 54.0318 75.3092C54.0318 75.5151 53.9715 75.6819 53.8508 75.8091C53.7313 75.9364 53.5746 76 53.381 76C53.2543 76 53.1404 75.9799 53.0393 75.9398C52.9385 75.8984 52.8482 75.8392 52.769 75.7618L52.7674 75.2321H52.9961L53.0533 75.543C53.0884 75.5875 53.1357 75.6195 53.1955 75.6396C53.2563 75.6596 53.3182 75.6696 53.381 75.6696C53.4893 75.6696 53.5737 75.6396 53.6345 75.5797C53.6964 75.5179 53.7273 75.438 53.7273 75.3393C53.7273 75.2465 53.7016 75.1697 53.65 75.1099C53.5994 75.0497 53.503 74.9976 53.361 74.9531C53.158 74.8917 53.0049 74.808 52.9018 74.7024C52.7987 74.5964 52.7471 74.4535 52.7471 74.2733C52.7471 74.0846 52.805 73.9235 52.9205 73.7906C53.0368 73.6577 53.1879 73.5913 53.3734 73.5913C53.5001 73.5913 53.6138 73.6141 53.7149 73.6599C53.8159 73.7057 53.8999 73.7693 53.9668 73.8508L53.9823 74.3633Z" fill="#999591"/>
<path d="M55.0812 75.1142C55.0812 74.9397 55.1175 74.7873 55.1895 74.6573C55.2627 74.5256 55.3714 74.394 55.5157 74.2626C55.4353 74.121 55.3755 73.995 55.3363 73.885C55.2971 73.7734 55.2775 73.659 55.2775 73.5417C55.2775 73.3001 55.3275 73.1142 55.4275 72.9842C55.5285 72.8525 55.6672 72.7867 55.8435 72.7867C56.0062 72.7867 56.1386 72.8519 56.2406 72.982C56.3428 73.112 56.3936 73.2687 56.3936 73.4518C56.3936 73.5919 56.3664 73.7135 56.3117 73.8163C56.2581 73.9179 56.1782 74.0222 56.0722 74.1294L55.9036 74.3012L56.4292 75.1785C56.4715 75.0854 56.5044 74.9826 56.5282 74.8695C56.5519 74.7566 56.5638 74.6372 56.5638 74.5112H56.8357C56.8357 74.6986 56.8157 74.8723 56.7754 75.0324C56.7353 75.1926 56.677 75.3365 56.6007 75.4637L56.8868 75.9442L56.8837 75.9549H56.5296L56.3984 75.7361C56.316 75.822 56.2246 75.8878 56.1246 75.9336C56.0247 75.9777 55.9211 76 55.814 76C55.5904 76 55.4121 75.9179 55.2791 75.7533C55.1472 75.5888 55.0812 75.3756 55.0812 75.1142ZM55.814 75.6696C55.8883 75.6696 55.9614 75.6524 56.0335 75.6182C56.1057 75.5825 56.1737 75.5317 56.2376 75.4659L55.6796 74.5328L55.6177 74.5949C55.524 74.6924 55.4617 74.7851 55.4306 74.8738C55.4007 74.9625 55.3858 75.0425 55.3858 75.1142C55.3858 75.2757 55.4225 75.4086 55.4957 75.5129C55.5688 75.6176 55.6749 75.6696 55.814 75.6696ZM55.5821 73.5374C55.5821 73.6132 55.5961 73.6925 55.624 73.7756C55.6517 73.8571 55.6935 73.9464 55.7491 74.0439L55.9623 73.8398C56.0211 73.7856 56.0609 73.727 56.0814 73.664C56.103 73.5997 56.1138 73.5289 56.1138 73.4518C56.1138 73.3643 56.0886 73.2872 56.0382 73.2202C55.9887 73.1528 55.9238 73.1192 55.8435 73.1192C55.7599 73.1192 55.6956 73.16 55.6501 73.2415C55.6048 73.3217 55.5821 73.4201 55.5821 73.5374Z" fill="#999591"/>
<path d="M59.4885 73.7543H59.2579L59.2008 73.3079C59.1544 73.2537 59.0927 73.2086 59.0153 73.1728C58.9381 73.1371 58.8485 73.1192 58.7463 73.1192C58.5847 73.1192 58.4604 73.1672 58.374 73.2628C58.2873 73.3574 58.2441 73.4809 58.2441 73.6339C58.2441 73.7699 58.2877 73.8837 58.3753 73.9752C58.464 74.0652 58.6067 74.1445 58.8037 74.2131C59.0405 74.2946 59.2204 74.415 59.343 74.5736C59.4666 74.7322 59.5285 74.929 59.5285 75.1634C59.5285 75.4151 59.4542 75.6176 59.3059 75.7706C59.1587 75.9235 58.9653 76 58.7262 76C58.5531 76 58.3992 75.9608 58.2641 75.8821C58.1302 75.8035 58.021 75.7004 57.9363 75.5731V74.9917H58.1653L58.2238 75.4402C58.2826 75.5073 58.3528 75.5624 58.4341 75.6054C58.5155 75.6483 58.613 75.6696 58.7262 75.6696C58.8798 75.6696 59.0009 75.6245 59.0896 75.5346C59.1792 75.4443 59.224 75.322 59.224 75.1678C59.224 75.0246 59.1855 74.9052 59.108 74.8096C59.0308 74.7121 58.8942 74.6306 58.6986 74.5651C58.4604 74.4864 58.2745 74.3705 58.1405 74.2175C58.0066 74.0646 57.9395 73.8721 57.9395 73.6405C57.9395 73.396 58.0142 73.1929 58.1637 73.0312C58.3129 72.8682 58.5072 72.7867 58.7463 72.7867C58.9041 72.7867 59.0472 72.8246 59.176 72.9005C59.3059 72.9747 59.4101 73.0656 59.4885 73.1728V73.7543Z" fill="#999591"/>
<path d="M59.7744 75.6847L60.0262 75.6245V72.9412L59.7744 72.881V72.6087H60.3308V73.9429C60.3884 73.8314 60.4591 73.7448 60.5426 73.6834C60.6259 73.622 60.7187 73.5913 60.8209 73.5913C61.0001 73.5913 61.1392 73.6656 61.2382 73.8141C61.3371 73.963 61.3866 74.1918 61.3866 74.5005V75.6245L61.6385 75.6847V75.9549H60.8301V75.6847L61.082 75.6245V74.4965C61.082 74.3046 61.0521 74.1633 60.9924 74.0718C60.9337 73.9802 60.8456 73.9345 60.7281 73.9345C60.6446 73.9345 60.5683 73.9621 60.4992 74.0179C60.4312 74.0724 60.3752 74.1467 60.3308 74.241V75.6245L60.5827 75.6847V75.9549H59.7744V75.6847Z" fill="#999591"/>
<path d="M62.9508 75.9549C62.9416 75.8922 62.9344 75.8354 62.9292 75.7856C62.924 75.7355 62.9204 75.6853 62.9184 75.6355C62.8597 75.7399 62.7861 75.827 62.6974 75.8969C62.6098 75.9655 62.5159 76 62.416 76C62.242 76 62.1094 75.9414 62.0187 75.8242C61.9282 75.7054 61.8827 75.5389 61.8827 75.3242C61.8827 75.1042 61.9466 74.9346 62.0745 74.8158C62.2032 74.6958 62.3795 74.6356 62.603 74.6356H62.9168V74.3654C62.9168 74.2297 62.886 74.1222 62.8241 74.0439C62.7622 73.9636 62.6762 73.9235 62.5659 73.9235C62.4898 73.9235 62.4223 73.9373 62.3635 73.9643C62.3057 73.9915 62.2588 74.0288 62.2228 74.0758L62.1904 74.3203H61.9554V73.8699C62.0317 73.7856 62.1238 73.7185 62.2321 73.6684C62.3403 73.617 62.4578 73.5913 62.5846 73.5913C62.7741 73.5913 62.9276 73.6583 63.0452 73.7928C63.1627 73.9273 63.2214 74.1194 63.2214 74.3698V75.4872C63.2214 75.5173 63.2214 75.5468 63.2214 75.5753C63.2223 75.6038 63.2239 75.6323 63.2259 75.6612L63.3497 75.6847V75.9549H62.9508ZM62.4608 75.6461C62.5618 75.6461 62.6541 75.6126 62.7374 75.5452C62.8209 75.4781 62.8808 75.3973 62.9168 75.3029V74.9212H62.5922C62.4675 74.9212 62.3687 74.961 62.2955 75.0412C62.2233 75.1211 62.1873 75.2186 62.1873 75.333C62.1873 75.4346 62.21 75.5123 62.2552 75.5668C62.3005 75.6195 62.3692 75.6461 62.4608 75.6461Z" fill="#999591"/>
<path d="M64.152 73.9066L63.9509 73.9492L64.2956 75.2706L64.3235 75.438H64.3327L64.362 75.2706L64.696 73.9492L64.4934 73.9066V73.6339H65.1395V73.9066L65.002 73.9385L64.441 75.9549H64.2107L63.6432 73.9385L63.5057 73.9066V73.6339H64.152V73.9066Z" fill="#999591"/>
<path d="M66.0888 76C65.8558 76 65.6703 75.8928 65.5323 75.6781C65.3953 75.4625 65.3266 75.1829 65.3266 74.8397V74.745C65.3266 74.415 65.3973 74.1404 65.5384 73.9213C65.6807 73.7013 65.8486 73.5913 66.0424 73.5913C66.2671 73.5913 66.4371 73.6856 66.5525 73.8743C66.6689 74.063 66.7272 74.3147 66.7272 74.6294V74.8933H65.642L65.6375 74.9039C65.6404 75.1271 65.6811 75.3108 65.7595 75.4553C65.8378 75.5982 65.9477 75.6696 66.0888 75.6696C66.1917 75.6696 66.282 75.6496 66.3592 75.6095C66.4375 75.5681 66.505 75.5117 66.5618 75.4402L66.6808 75.7148C66.621 75.7947 66.5417 75.8627 66.4427 75.9185C66.3448 75.9727 66.2268 76 66.0888 76ZM66.0424 73.9235C65.9402 73.9235 65.8534 73.9837 65.7811 74.1037C65.7091 74.2225 65.6647 74.372 65.6483 74.5523L65.6512 74.5629H66.4226V74.5071C66.4226 74.3413 66.3907 74.2025 66.3268 74.0909C66.2628 73.9793 66.1681 73.9235 66.0424 73.9235Z" fill="#999591"/>
<path d="M68.3084 74.3633H68.0797L68.0301 74.0846C67.9932 74.0357 67.9462 73.9972 67.8894 73.9686C67.8338 73.9385 67.7706 73.9235 67.6995 73.9235C67.5912 73.9235 67.5108 73.9564 67.4584 74.0222C67.4057 74.0881 67.3793 74.1674 67.3793 74.2604C67.3793 74.352 67.4025 74.4241 67.4489 74.477C67.4953 74.53 67.5896 74.577 67.7319 74.6187C67.9432 74.6814 68.1004 74.7673 68.2032 74.876C68.3063 74.9832 68.3579 75.1277 68.3579 75.3092C68.3579 75.5151 68.2976 75.6819 68.1771 75.8091C68.0576 75.9364 67.9009 76 67.7071 76C67.5804 76 67.4665 75.9799 67.3656 75.9398C67.2645 75.8984 67.1743 75.8392 67.095 75.7618L67.0935 75.2321H67.3222L67.3793 75.543C67.4145 75.5875 67.462 75.6195 67.5216 75.6396C67.5824 75.6596 67.6443 75.6696 67.7071 75.6696C67.8154 75.6696 67.8998 75.6396 67.9606 75.5797C68.0225 75.5179 68.0533 75.438 68.0533 75.3393C68.0533 75.2465 68.0277 75.1697 67.9761 75.1099C67.9257 75.0497 67.8293 74.9976 67.6871 74.9531C67.484 74.8917 67.3309 74.808 67.2281 74.7024C67.125 74.5964 67.0734 74.4535 67.0734 74.2733C67.0734 74.0846 67.1311 73.9235 67.2465 73.7906C67.3629 73.6577 67.514 73.5913 67.6995 73.5913C67.8262 73.5913 67.9401 73.6141 68.0409 73.6599C68.142 73.7057 68.226 73.7693 68.2931 73.8508L68.3084 74.3633Z" fill="#999591"/>
<path d="M47.7158 36.8529L47.8827 36.8207L48.6695 34H48.9307L49.7036 36.8207L49.869 36.8529V37.1232H49.2229V36.8529L49.3929 36.8121L49.2445 36.2373H48.3433L48.1903 36.8121L48.3604 36.8529V37.1232H47.7158V36.8529ZM48.4376 35.8833H49.1518L48.8024 34.5427H48.7932L48.4376 35.8833Z" fill="#999591"/>
<path d="M50.4889 35.0747L50.2972 35.1218L50.5152 36.278L50.5507 36.559H50.56L50.6033 36.278L50.9372 34.8022H51.1814L51.517 36.278L51.5647 36.5912H51.5741L51.6189 36.278L51.8244 35.1218L51.6297 35.0747V34.8022H52.2666V35.0747L52.1211 35.1047L51.6993 37.1232H51.4535L51.1289 35.7096L51.0593 35.3192L51.05 35.3213L50.9851 35.7096L50.6667 37.1232H50.4209L49.9989 35.1047L49.8521 35.0747V34.8022H50.4889V35.0747Z" fill="#999591"/>
<path d="M53.2775 37.1682C53.0445 37.1682 52.859 37.061 52.721 36.8465C52.5839 36.6305 52.5153 36.351 52.5153 36.0077V35.9134C52.5153 35.583 52.5859 35.3085 52.7271 35.0897C52.8694 34.8695 53.0373 34.7593 53.2311 34.7593C53.4558 34.7593 53.6257 34.8537 53.7412 35.0425C53.8576 35.2312 53.9159 35.4829 53.9159 35.7975V36.0614H52.8306L52.8261 36.0721C52.8291 36.2952 52.8698 36.4789 52.9481 36.6234C53.0265 36.7664 53.1363 36.8379 53.2775 36.8379C53.3806 36.8379 53.4706 36.8179 53.5478 36.7778C53.6262 36.7363 53.6937 36.6799 53.7504 36.6084L53.8695 36.8829C53.8096 36.963 53.7304 37.0309 53.6313 37.0867C53.5334 37.141 53.4155 37.1682 53.2775 37.1682ZM53.2311 35.0918C53.1291 35.0918 53.042 35.1519 52.9698 35.272C52.8977 35.3907 52.8534 35.5401 52.8369 35.7203L52.8401 35.731H53.6113V35.6753C53.6113 35.5094 53.5793 35.3707 53.5154 35.2591C53.4515 35.1476 53.3567 35.0918 53.2311 35.0918Z" fill="#999591"/>
<path d="M55.497 35.5316H55.2683L55.2188 35.2527C55.1819 35.2041 55.1348 35.1655 55.0783 35.1369C55.0225 35.1068 54.9592 35.0918 54.8881 35.0918C54.7798 35.0918 54.6995 35.1247 54.647 35.1905C54.5943 35.2563 54.5682 35.3356 54.5682 35.4286C54.5682 35.5201 54.5914 35.5923 54.6378 35.6452C54.6842 35.6981 54.7783 35.7453 54.9205 35.7868C55.1319 35.8497 55.289 35.9355 55.3921 36.0442C55.495 36.1515 55.5466 36.2959 55.5466 36.4775C55.5466 36.6834 55.4862 36.85 55.3658 36.9773C55.2463 37.1046 55.0896 37.1682 54.8958 37.1682C54.769 37.1682 54.6551 37.1482 54.5543 37.1081C54.4532 37.0667 54.3632 37.0073 54.2837 36.9301L54.2821 36.4003H54.5108L54.5682 36.7113C54.6031 36.7556 54.6506 36.7878 54.7103 36.8078C54.7711 36.8279 54.833 36.8379 54.8958 36.8379C55.004 36.8379 55.0885 36.8078 55.1492 36.7478C55.2111 36.6863 55.242 36.6062 55.242 36.5075C55.242 36.4146 55.2163 36.3381 55.1648 36.278C55.1144 36.218 55.018 36.1658 54.8757 36.1214C54.6727 36.0599 54.5196 35.9763 54.4167 35.8705C54.3136 35.7646 54.2621 35.6216 54.2621 35.4415C54.2621 35.2527 54.3197 35.0918 54.4352 34.9588C54.5516 34.8258 54.7026 34.7593 54.8881 34.7593C55.0149 34.7593 55.1288 34.7822 55.2298 34.828C55.3307 34.8737 55.4146 34.9374 55.4817 35.0189L55.497 35.5316Z" fill="#999591"/>
<path d="M55.8327 35.9413C55.8327 35.598 55.8996 35.3156 56.0335 35.094C56.1674 34.8709 56.3493 34.7593 56.5792 34.7593C56.8101 34.7593 56.9925 34.8702 57.1264 35.0918C57.2615 35.3135 57.329 35.5966 57.329 35.9413V35.9884C57.329 36.3345 57.2619 36.6176 57.128 36.8379C56.994 37.0581 56.8121 37.1682 56.5823 37.1682C56.3505 37.1682 56.1674 37.0581 56.0335 36.8379C55.8996 36.6162 55.8327 36.3331 55.8327 35.9884V35.9413ZM56.137 35.9884C56.137 36.2344 56.1742 36.4375 56.2485 36.5976C56.3237 36.7578 56.4349 36.8379 56.5823 36.8379C56.7266 36.8379 56.8362 36.7578 56.9116 36.5976C56.9868 36.4375 57.0244 36.2344 57.0244 35.9884V35.9413C57.0244 35.6981 56.9868 35.4958 56.9116 35.3342C56.8362 35.1726 56.7255 35.0918 56.5792 35.0918C56.4328 35.0918 56.3225 35.1726 56.2485 35.3342C56.1742 35.4958 56.137 35.6981 56.137 35.9413V35.9884Z" fill="#999591"/>
<path d="M57.5485 36.8529L57.8004 36.7928V35.1347L57.5485 35.0747V34.8022H58.0739L58.0941 35.1047C58.1477 34.9946 58.2166 34.9095 58.3012 34.8494C58.3856 34.7894 58.4836 34.7593 58.595 34.7593C58.7062 34.7593 58.8014 34.7951 58.8809 34.8666C58.9612 34.9381 59.0216 35.0453 59.0616 35.1883C59.1143 35.0568 59.1839 34.9524 59.2703 34.8752C59.357 34.7979 59.4578 34.7593 59.5733 34.7593C59.7444 34.7593 59.8795 34.8409 59.9783 35.0039C60.0773 35.1655 60.1269 35.4093 60.1269 35.7353V36.7928L60.3788 36.8529V37.1232H59.5688V36.8529L59.8207 36.7928V35.731C59.8207 35.5022 59.7923 35.3406 59.7356 35.2463C59.6789 35.1505 59.5949 35.1025 59.4837 35.1025C59.3775 35.1025 59.2919 35.1547 59.2271 35.2591C59.1632 35.3621 59.126 35.4922 59.1159 35.6495V36.7928L59.3678 36.8529V37.1232H58.5594V36.8529L58.8113 36.7928V35.731C58.8113 35.5137 58.7818 35.3549 58.7231 35.2548C58.6655 35.1533 58.5815 35.1025 58.4712 35.1025C58.3784 35.1025 58.3021 35.129 58.2425 35.1819C58.1826 35.2348 58.1369 35.3092 58.1049 35.405V36.7928L58.3568 36.8529V37.1232H57.5485V36.8529Z" fill="#999591"/>
<path d="M61.3495 37.1682C61.1167 37.1682 60.9312 37.061 60.793 36.8465C60.6559 36.6305 60.5875 36.351 60.5875 36.0077V35.9134C60.5875 35.583 60.6579 35.3085 60.7993 35.0897C60.9413 34.8695 61.1095 34.7593 61.3031 34.7593C61.5277 34.7593 61.6977 34.8537 61.8132 35.0425C61.9296 35.2312 61.9879 35.4829 61.9879 35.7975V36.0614H60.9028L60.8981 36.0721C60.9013 36.2952 60.942 36.4789 61.0203 36.6234C61.0985 36.7664 61.2083 36.8379 61.3495 36.8379C61.4526 36.8379 61.5426 36.8179 61.62 36.7778C61.6984 36.7363 61.7659 36.6799 61.8224 36.6084L61.9415 36.8829C61.8818 36.963 61.8024 37.0309 61.7036 37.0867C61.6056 37.141 61.4877 37.1682 61.3495 37.1682ZM61.3031 35.0918C61.2011 35.0918 61.114 35.1519 61.042 35.272C60.9697 35.3907 60.9253 35.5401 60.9089 35.7203L60.9121 35.731H61.6833V35.6753C61.6833 35.5094 61.6513 35.3707 61.5876 35.2591C61.5237 35.1476 61.4289 35.0918 61.3031 35.0918Z" fill="#999591"/>
<path d="M80.7823 67.2468H29V67.8743H80.7823V67.2468Z" fill="#FF9000"/>
<path d="M80.7823 42.1438H29V42.7713H80.7823V42.1438Z" fill="#FF9000"/>
<path d="M40.9936 54.3112V58.7218C40.9936 59.0966 40.9388 59.4539 40.829 59.7936C40.7277 60.1216 40.5884 60.4087 40.4111 60.6547C40.2339 60.9007 40.0228 61.094 39.778 61.2346C39.5416 61.3869 39.2884 61.463 39.0182 61.463C38.7481 61.463 38.4948 61.3927 38.2584 61.2521C38.0221 61.1116 37.8152 60.9241 37.6379 60.6898C37.4607 60.4438 37.3172 60.1627 37.2074 59.8464C37.1061 59.5184 37.0512 59.1669 37.0428 58.792V55.5412C37.0175 55.1781 36.8993 54.9145 36.6882 54.7505C36.8064 54.6685 36.9246 54.6275 37.0428 54.6275V50.4805C37.0512 50.1056 37.1061 49.7541 37.2074 49.4261C37.3172 49.0981 37.4607 48.817 37.6379 48.5827C37.8152 48.3367 38.0221 48.1434 38.2584 48.0028C38.4948 47.8622 38.7481 47.7919 39.0182 47.7919C39.2884 47.7919 39.5416 47.8681 39.778 48.0204C40.0228 48.1609 40.2339 48.3542 40.4111 48.6002C40.5884 48.8462 40.7277 49.1391 40.829 49.4788C40.9388 49.8069 40.9936 50.1641 40.9936 50.5507C40.9936 50.7499 41.0063 50.8963 41.0316 50.99C41.0654 51.0837 41.0992 51.1599 41.1329 51.2185C41.1667 51.277 41.1963 51.3298 41.2216 51.3766C41.2553 51.4235 41.2722 51.4996 41.2722 51.6051H40.6137C40.4787 51.5816 40.4111 51.4821 40.4111 51.3064C40.4111 51.4821 40.3436 51.5816 40.2085 51.6051H39.5374C39.5374 51.4996 39.5501 51.4235 39.5754 51.3766C39.6091 51.3298 39.6429 51.277 39.6767 51.2185C39.7104 51.1599 39.74 51.0837 39.7653 50.99C39.7991 50.8963 39.816 50.744 39.816 50.5332V50.5156C39.816 50.3633 39.8118 50.1817 39.8033 49.9708C39.7949 49.7483 39.7653 49.5374 39.7147 49.3383C39.664 49.1391 39.5838 48.9692 39.4741 48.8287C39.3643 48.6881 39.2124 48.6178 39.0182 48.6178C38.8156 48.6178 38.6594 48.694 38.5497 48.8462C38.4484 48.9868 38.3724 49.1567 38.3218 49.3558C38.2711 49.555 38.2415 49.7659 38.2331 49.9884C38.2247 50.211 38.2205 50.3984 38.2205 50.5507V54.6275C38.3386 54.6275 38.4568 54.6685 38.575 54.7505C38.364 54.9145 38.2458 55.1781 38.2205 55.5412V58.7218C38.2205 58.8741 38.2247 59.0615 38.2331 59.2841C38.2415 59.4949 38.2711 59.7058 38.3218 59.9167C38.3724 60.1158 38.4484 60.2857 38.5497 60.4262C38.6594 60.5668 38.8156 60.6371 39.0182 60.6371C39.2208 60.6371 39.3728 60.5668 39.4741 60.4262C39.5838 60.2857 39.664 60.1158 39.7147 59.9167C39.7653 59.7058 39.7949 59.4949 39.8033 59.2841C39.8118 59.0615 39.816 58.8741 39.816 58.7218V55.1195C39.7231 55.1312 39.6429 55.1839 39.5754 55.2776C39.5163 55.3714 39.4867 55.4826 39.4867 55.6115V55.6291C39.4783 55.8048 39.4445 55.9571 39.3854 56.0859C39.3348 56.2031 39.2588 56.3085 39.1575 56.4022C39.0562 56.4842 38.9085 56.5253 38.7143 56.5253V54.3112H40.9936ZM37.7266 53.8016C37.7266 53.7313 37.7224 53.661 37.7139 53.5907C37.7139 53.5204 37.7139 53.456 37.7139 53.3974V52.9932C37.7055 52.7355 37.7013 52.4895 37.7013 52.2552C37.7013 52.0209 37.6971 51.7983 37.6886 51.5875C37.6802 51.4821 37.6759 51.3883 37.6759 51.3064C37.6759 51.2126 37.6717 51.1189 37.6633 51.0252C37.6633 50.9432 37.6591 50.867 37.6506 50.7967C37.6506 50.7147 37.6506 50.6444 37.6506 50.5859C37.6506 50.5273 37.6464 50.4746 37.6379 50.4277C37.6379 50.3809 37.6379 50.3399 37.6379 50.3047V50.2169C37.6295 50.2169 37.6253 50.2227 37.6253 50.2344V50.3047C37.6253 50.3399 37.6211 50.3809 37.6126 50.4277C37.6126 50.4746 37.6126 50.5273 37.6126 50.5859C37.6126 50.6444 37.6084 50.7147 37.6 50.7967C37.6 50.867 37.6 50.9432 37.6 51.0252C37.5915 51.1189 37.5873 51.2126 37.5873 51.3064C37.5873 51.3883 37.5831 51.4821 37.5746 51.5875C37.5662 51.7983 37.562 52.0209 37.562 52.2552C37.562 52.4895 37.5578 52.7355 37.5493 52.9932V53.3974C37.5493 53.456 37.5451 53.5204 37.5366 53.5907C37.5366 53.661 37.5366 53.7313 37.5366 53.8016V55.4358C37.5366 55.4709 37.5366 55.5061 37.5366 55.5412C37.5451 55.5763 37.5493 55.6056 37.5493 55.6291V56.2265C37.5493 56.3554 37.5493 56.4842 37.5493 56.6131C37.5578 56.7302 37.562 56.8474 37.562 56.9645C37.562 57.0934 37.562 57.2164 37.562 57.3336C37.5704 57.439 37.5746 57.5386 37.5746 57.6323C37.5831 57.7377 37.5873 57.8373 37.5873 57.931C37.5873 58.0247 37.5915 58.1126 37.6 58.1946C37.6 58.2883 37.6 58.3703 37.6 58.4406C37.6084 58.5109 37.6126 58.5753 37.6126 58.6339C37.6126 58.6925 37.6126 58.7452 37.6126 58.792C37.6211 58.8389 37.6253 58.8799 37.6253 58.9151V59.0029C37.6253 59.0146 37.6295 59.0205 37.6379 59.0205V58.9151C37.6379 58.8799 37.6379 58.8389 37.6379 58.792C37.6464 58.7452 37.6506 58.6925 37.6506 58.6339C37.6506 58.5753 37.6506 58.5109 37.6506 58.4406C37.6591 58.3703 37.6633 58.2883 37.6633 58.1946C37.6717 58.1126 37.6759 58.0247 37.6759 57.931C37.6759 57.8373 37.6802 57.7377 37.6886 57.6323C37.6886 57.5386 37.6886 57.439 37.6886 57.3336C37.6971 57.2164 37.7013 57.0934 37.7013 56.9645C37.7013 56.8474 37.7013 56.7302 37.7013 56.6131C37.7097 56.4842 37.7139 56.3554 37.7139 56.2265V55.8399C37.7139 55.7462 37.7181 55.6759 37.7266 55.6291V53.8016ZM40.4871 56.3495C40.4787 56.2324 40.4745 56.1269 40.4745 56.0332C40.4745 55.9278 40.4702 55.8282 40.4618 55.7345C40.4533 55.5588 40.4407 55.4124 40.4238 55.2952C40.4238 55.2718 40.4196 55.2483 40.4111 55.2249C40.4111 55.2015 40.4111 55.1839 40.4111 55.1722V55.1195L40.3985 55.1371V55.1722C40.3985 55.1839 40.3943 55.2015 40.3858 55.2249C40.3858 55.2483 40.3858 55.2718 40.3858 55.2952C40.3689 55.4124 40.3563 55.5588 40.3478 55.7345C40.3394 55.8282 40.3352 55.9278 40.3352 56.0332C40.3352 56.1269 40.3309 56.2324 40.3225 56.3495V56.5253C40.3225 56.5604 40.3183 56.5955 40.3098 56.6307C40.3098 56.6541 40.3098 56.6775 40.3098 56.701V57.439C40.3098 57.4741 40.3141 57.5034 40.3225 57.5269V57.7904C40.3225 57.849 40.3225 57.9017 40.3225 57.9486C40.3309 57.9954 40.3352 58.0482 40.3352 58.1067C40.3352 58.1653 40.3352 58.218 40.3352 58.2649C40.3436 58.3117 40.3478 58.3586 40.3478 58.4054C40.3563 58.4523 40.3605 58.4992 40.3605 58.546C40.3605 58.5812 40.3647 58.6163 40.3731 58.6515C40.3731 58.6866 40.3731 58.7218 40.3731 58.7569C40.3816 58.792 40.3858 58.8213 40.3858 58.8448C40.3858 58.8682 40.3858 58.8916 40.3858 58.9151C40.3943 58.9385 40.3985 58.9561 40.3985 58.9677V59.0029C40.3985 59.0146 40.4027 59.0205 40.4111 59.0205V58.9677C40.4111 58.9561 40.4111 58.9385 40.4111 58.9151C40.4196 58.8916 40.4238 58.8682 40.4238 58.8448C40.4238 58.8213 40.4238 58.792 40.4238 58.7569C40.4322 58.7218 40.4365 58.6866 40.4365 58.6515C40.4449 58.6163 40.4491 58.5812 40.4491 58.546C40.4491 58.4992 40.4533 58.4523 40.4618 58.4054C40.4618 58.3586 40.4618 58.3117 40.4618 58.2649C40.4702 58.218 40.4745 58.1653 40.4745 58.1067C40.4745 58.0482 40.4745 57.9954 40.4745 57.9486C40.4829 57.9017 40.4871 57.849 40.4871 57.7904V57.6147C40.4871 57.5679 40.4913 57.5386 40.4998 57.5269V56.701C40.4998 56.6775 40.4956 56.6541 40.4871 56.6307C40.4871 56.5955 40.4871 56.5604 40.4871 56.5253V56.3495Z" fill="#F4EDE8"/>
<path d="M45.5938 54.645C45.7373 54.645 45.8555 54.686 45.9484 54.768C45.8555 54.8501 45.7753 54.9613 45.7078 55.1019C45.6487 55.2425 45.6107 55.3948 45.5938 55.5588V58.2122C45.5854 58.5871 45.5263 58.9385 45.4165 59.2665C45.3152 59.5828 45.1759 59.8639 44.9986 60.11C44.8214 60.3443 44.6145 60.5317 44.3782 60.6723C44.1418 60.8128 43.8885 60.8831 43.6184 60.8831C43.3482 60.8831 43.095 60.8128 42.8586 60.6723C42.6222 60.5317 42.4154 60.3443 42.2381 60.11C42.0609 59.8639 41.9173 59.5828 41.8076 59.2665C41.7063 58.9385 41.6514 58.5871 41.643 58.2122V55.5588C41.6176 55.1956 41.4995 54.932 41.2884 54.768C41.3813 54.686 41.4995 54.645 41.643 54.645V51.2536C41.6514 50.8905 41.7063 50.5449 41.8076 50.2169C41.9173 49.8888 42.0609 49.6077 42.2381 49.3734C42.4154 49.1274 42.6222 48.9341 42.8586 48.7935C43.095 48.653 43.3482 48.5827 43.6184 48.5827C43.8885 48.5827 44.1418 48.653 44.3782 48.7935C44.6145 48.9341 44.8214 49.1274 44.9986 49.3734C45.1759 49.6077 45.3152 49.8888 45.4165 50.2169C45.5263 50.5449 45.5854 50.8905 45.5938 51.2536V54.645ZM42.3268 54.0124C42.3268 53.9539 42.3225 53.9011 42.3141 53.8543C42.3141 53.7957 42.3141 53.7371 42.3141 53.6786V53.3447C42.3057 53.1221 42.3014 52.9113 42.3014 52.7121C42.3014 52.5129 42.2972 52.3255 42.2888 52.1498C42.2803 52.0678 42.2761 51.9858 42.2761 51.9038C42.2761 51.8218 42.2719 51.7456 42.2634 51.6754C42.2634 51.6051 42.2592 51.5406 42.2508 51.4821C42.2508 51.4235 42.2508 51.3708 42.2508 51.3239C42.2508 51.2653 42.2466 51.2185 42.2381 51.1833C42.2381 51.1365 42.2381 51.1013 42.2381 51.0779V50.99C42.2297 50.99 42.2254 50.9959 42.2254 51.0076V51.0779C42.2254 51.1013 42.2212 51.1365 42.2128 51.1833C42.2128 51.2185 42.2128 51.2653 42.2128 51.3239C42.2128 51.3708 42.2086 51.4235 42.2001 51.4821C42.2001 51.5406 42.2001 51.6051 42.2001 51.6754C42.1917 51.7456 42.1875 51.8218 42.1875 51.9038C42.1875 51.9858 42.1832 52.0678 42.1748 52.1498C42.1664 52.3255 42.1621 52.5129 42.1621 52.7121C42.1621 52.9113 42.1579 53.1221 42.1495 53.3447V53.6786C42.1495 53.7371 42.1453 53.7957 42.1368 53.8543C42.1368 53.9011 42.1368 53.9539 42.1368 54.0124V55.4006C42.1368 55.4826 42.141 55.5412 42.1495 55.5763V56.086C42.1495 56.1914 42.1495 56.2968 42.1495 56.4022C42.1579 56.5077 42.1621 56.6073 42.1621 56.701C42.1621 56.8064 42.1621 56.906 42.1621 56.9997C42.1706 57.0817 42.1748 57.1696 42.1748 57.2633C42.1832 57.357 42.1875 57.4448 42.1875 57.5269C42.1875 57.5971 42.1917 57.6674 42.2001 57.7377C42.2001 57.808 42.2001 57.8724 42.2001 57.931C42.2086 57.9896 42.2128 58.0482 42.2128 58.1067C42.2128 58.1653 42.2128 58.218 42.2128 58.2649C42.2212 58.3 42.2254 58.3293 42.2254 58.3527V58.4054C42.2254 58.4172 42.2297 58.423 42.2381 58.423V58.3527C42.2381 58.3293 42.2381 58.3 42.2381 58.2649C42.2466 58.218 42.2508 58.1653 42.2508 58.1067C42.2508 58.0482 42.2508 57.9896 42.2508 57.931C42.2592 57.8724 42.2634 57.808 42.2634 57.7377C42.2719 57.6674 42.2761 57.5971 42.2761 57.5269C42.2761 57.4448 42.2803 57.357 42.2888 57.2633C42.2888 57.1696 42.2888 57.0817 42.2888 56.9997C42.2972 56.906 42.3014 56.8064 42.3014 56.701C42.3014 56.6073 42.3014 56.5077 42.3014 56.4022C42.3099 56.2968 42.3141 56.1914 42.3141 56.086V55.5763C42.3225 55.5412 42.3268 55.4826 42.3268 55.4006V54.0124ZM44.4162 51.3239C44.4162 51.1716 44.4119 50.9842 44.4035 50.7616C44.395 50.539 44.3655 50.3282 44.3148 50.129C44.2642 49.9298 44.184 49.76 44.0742 49.6194C43.9729 49.4671 43.821 49.391 43.6184 49.391C43.4158 49.391 43.2596 49.4671 43.1499 49.6194C43.0486 49.76 42.9726 49.9298 42.9219 50.129C42.8713 50.3282 42.8417 50.539 42.8333 50.7616C42.8248 50.9842 42.8206 51.1716 42.8206 51.3239V54.645C42.9641 54.645 43.0823 54.686 43.1752 54.768C42.9641 54.932 42.8459 55.1956 42.8206 55.5588V58.1419C42.8206 58.2942 42.8248 58.4816 42.8333 58.7042C42.8417 58.9151 42.8713 59.1259 42.9219 59.3368C42.9726 59.5359 43.0486 59.7058 43.1499 59.8464C43.2596 59.9869 43.4158 60.0572 43.6184 60.0572C43.821 60.0572 43.9729 59.9869 44.0742 59.8464C44.184 59.7058 44.2642 59.5359 44.3148 59.3368C44.3655 59.1259 44.395 58.9151 44.4035 58.7042C44.4119 58.4816 44.4162 58.2942 44.4162 58.1419V55.5588C44.3993 55.2073 44.2811 54.9438 44.0616 54.768C44.1544 54.686 44.2726 54.645 44.4162 54.645V51.3239ZM45.0999 54.0124C45.0999 53.9539 45.0999 53.9011 45.0999 53.8543C45.0999 53.7957 45.0957 53.7371 45.0873 53.6786V53.3447C45.0873 53.1221 45.0831 52.9113 45.0746 52.7121C45.0746 52.5129 45.0704 52.3255 45.062 52.1498C45.0535 52.0678 45.0493 51.9858 45.0493 51.9038C45.0493 51.8218 45.0451 51.7456 45.0366 51.6754C45.0366 51.6051 45.0324 51.5406 45.024 51.4821C45.024 51.4235 45.024 51.3708 45.024 51.3239C45.024 51.2653 45.0197 51.2185 45.0113 51.1833C45.0113 51.1365 45.0113 51.1013 45.0113 51.0779V50.99C45.0029 50.99 44.9986 50.9959 44.9986 51.0076V51.0779C44.9986 51.1013 44.9986 51.1365 44.9986 51.1833C44.9986 51.2185 44.9944 51.2653 44.986 51.3239C44.986 51.3708 44.9818 51.4235 44.9733 51.4821C44.9733 51.5406 44.9733 51.6051 44.9733 51.6754C44.9649 51.7456 44.9607 51.8218 44.9607 51.9038C44.9607 51.9858 44.9564 52.0678 44.948 52.1498C44.9396 52.3255 44.9353 52.5129 44.9353 52.7121C44.9353 52.9113 44.9311 53.1221 44.9227 53.3447V54.0124C44.9142 54.1296 44.91 54.2467 44.91 54.3639C44.91 54.481 44.91 54.5982 44.91 54.7153C44.91 54.8325 44.91 54.9496 44.91 55.0668C44.91 55.1722 44.9142 55.2835 44.9227 55.4006V56.086C44.9227 56.1914 44.9227 56.2968 44.9227 56.4022C44.9311 56.5077 44.9353 56.6073 44.9353 56.701C44.9353 56.8064 44.9353 56.906 44.9353 56.9997C44.9438 57.0817 44.948 57.1696 44.948 57.2633C44.9564 57.357 44.9607 57.4448 44.9607 57.5269C44.9607 57.5971 44.9649 57.6674 44.9733 57.7377C44.9733 57.808 44.9733 57.8724 44.9733 57.931C44.9818 57.9896 44.986 58.0482 44.986 58.1067C44.9944 58.1653 44.9986 58.218 44.9986 58.2649C44.9986 58.3 44.9986 58.3293 44.9986 58.3527V58.4054C44.9986 58.4172 45.0029 58.423 45.0113 58.423V58.3527C45.0113 58.3293 45.0113 58.3 45.0113 58.2649C45.0197 58.218 45.024 58.1653 45.024 58.1067C45.024 58.0482 45.024 57.9896 45.024 57.931C45.0324 57.8724 45.0366 57.808 45.0366 57.7377C45.0451 57.6674 45.0493 57.5971 45.0493 57.5269C45.0493 57.4448 45.0535 57.357 45.062 57.2633C45.062 57.1696 45.062 57.0817 45.062 56.9997C45.0704 56.906 45.0746 56.8064 45.0746 56.701C45.0746 56.6073 45.0746 56.5077 45.0746 56.4022C45.0831 56.2968 45.0873 56.1914 45.0873 56.086V55.7521C45.0873 55.7286 45.0873 55.6994 45.0873 55.6642C45.0957 55.6291 45.0999 55.5998 45.0999 55.5763V54.0124Z" fill="#F4EDE8"/>
<path d="M50.2929 52.3782C50.2929 52.9054 50.2001 53.3798 50.0144 53.8016C49.8286 54.2233 49.5796 54.5513 49.2672 54.7856C49.4192 54.9496 49.5585 55.1429 49.6851 55.3655C49.8118 55.5763 49.9173 55.8106 50.0017 56.0684C50.0946 56.3261 50.1663 56.5897 50.217 56.8591C50.2676 57.1286 50.2929 57.3921 50.2929 57.6499V58.7745C50.2845 59.1493 50.2296 59.5008 50.1283 59.8288C50.027 60.1451 49.8877 60.4262 49.7105 60.6723C49.5332 60.9065 49.3263 61.094 49.09 61.2346C48.8536 61.3869 48.6003 61.463 48.3302 61.463H47.1399C47.0808 61.463 47.0301 61.4337 46.9879 61.3751C46.9541 61.3165 46.9373 61.2463 46.9373 61.1643C46.9373 61.2463 46.9162 61.3165 46.874 61.3751C46.8317 61.4337 46.7853 61.463 46.7347 61.463H46.0635C46.0635 61.3576 46.0762 61.2814 46.1015 61.2346C46.1353 61.1877 46.1691 61.135 46.2028 61.0764C46.2366 61.0295 46.2661 60.9593 46.2914 60.8655C46.3252 60.7718 46.3421 60.6254 46.3421 60.4262V55.5236C46.3168 55.1722 46.1986 54.9145 45.9875 54.7505C46.0973 54.6568 46.2155 54.6099 46.3421 54.6099V48.8287C46.3421 48.6295 46.3252 48.4831 46.2914 48.3894C46.2661 48.2956 46.2366 48.2254 46.2028 48.1785C46.1691 48.1199 46.1353 48.0672 46.1015 48.0204C46.0762 47.9735 46.0635 47.8974 46.0635 47.7919H46.7347C46.7853 47.7919 46.8317 47.8212 46.874 47.8798C46.9162 47.9266 46.9373 47.9911 46.9373 48.0731C46.9373 47.8856 47.0048 47.7919 47.1399 47.7919H48.3302C48.6003 47.7919 48.8536 47.8622 49.09 48.0028C49.3263 48.1434 49.5332 48.3367 49.7105 48.5827C49.8877 48.817 50.027 49.0981 50.1283 49.4261C50.2296 49.7541 50.2845 50.0997 50.2929 50.4629V52.3782ZM47.0259 53.6786C47.0259 53.5966 47.0217 53.5204 47.0132 53.4501C47.0132 53.3681 47.0132 53.292 47.0132 53.2217V52.7648C47.0048 52.4602 47.0006 52.1732 47.0006 51.9038C47.0006 51.6344 46.9963 51.3825 46.9879 51.1482C46.9795 51.0193 46.9753 50.9022 46.9753 50.7967C46.9753 50.6913 46.971 50.5917 46.9626 50.498C46.9626 50.4043 46.9584 50.3164 46.9499 50.2344C46.9499 50.1407 46.9499 50.0646 46.9499 50.006C46.9499 49.9357 46.9457 49.8713 46.9373 49.8127C46.9373 49.7541 46.9373 49.7073 46.9373 49.6721V49.5667C46.9288 49.5784 46.9246 49.5901 46.9246 49.6018V49.6721C46.9246 49.7073 46.9204 49.7541 46.9119 49.8127C46.9119 49.8713 46.9119 49.9357 46.9119 50.006C46.9119 50.0646 46.9077 50.1407 46.8993 50.2344C46.8993 50.3164 46.8993 50.4043 46.8993 50.498C46.8908 50.5917 46.8866 50.6913 46.8866 50.7967C46.8866 50.9022 46.8824 51.0193 46.874 51.1482C46.8655 51.3825 46.8613 51.6344 46.8613 51.9038C46.8613 52.1732 46.8571 52.4602 46.8486 52.7648V53.2217C46.8486 53.292 46.8486 53.3681 46.8486 53.4501C46.8486 53.5204 46.8444 53.5966 46.836 53.6786V55.5588C46.836 55.6056 46.836 55.6466 46.836 55.6818C46.8444 55.7169 46.8486 55.7579 46.8486 55.8048V56.4725C46.8486 56.6248 46.8486 56.7771 46.8486 56.9294C46.8571 57.07 46.8613 57.2047 46.8613 57.3336C46.8613 57.4624 46.8613 57.5913 46.8613 57.7202C46.8697 57.849 46.874 57.9779 46.874 58.1067C46.8824 58.1653 46.8866 58.2239 46.8866 58.2825C46.8866 58.3293 46.8866 58.382 46.8866 58.4406C46.8866 58.4992 46.8866 58.5519 46.8866 58.5987C46.8951 58.6456 46.8993 58.6925 46.8993 58.7393C46.8993 58.833 46.8993 58.9267 46.8993 59.0205C46.9077 59.1025 46.9119 59.1786 46.9119 59.2489C46.9119 59.3192 46.9119 59.3836 46.9119 59.4422C46.9204 59.4891 46.9246 59.5301 46.9246 59.5652V59.6531C46.9246 59.6648 46.9288 59.6765 46.9373 59.6882V59.5652C46.9373 59.5301 46.9373 59.4891 46.9373 59.4422C46.9457 59.3836 46.9499 59.3192 46.9499 59.2489C46.9499 59.1786 46.9499 59.1025 46.9499 59.0205C46.9584 58.9267 46.9626 58.833 46.9626 58.7393C46.971 58.6925 46.9753 58.6456 46.9753 58.5987C46.9753 58.5519 46.9753 58.4992 46.9753 58.4406C46.9753 58.382 46.9753 58.3293 46.9753 58.2825C46.9837 58.2239 46.9879 58.1653 46.9879 58.1067C46.9879 57.9779 46.9879 57.849 46.9879 57.7202C46.9963 57.5913 47.0006 57.4624 47.0006 57.3336C47.0006 57.2047 47.0006 57.07 47.0006 56.9294C47.009 56.7771 47.0132 56.6248 47.0132 56.4725V56.0332C47.0132 55.9278 47.0175 55.8517 47.0259 55.8048V53.6786ZM49.6345 58.423C49.626 58.4582 49.6218 58.5167 49.6218 58.5987V58.9151C49.6218 58.9736 49.6176 59.0263 49.6091 59.0732C49.6091 59.12 49.6091 59.1669 49.6091 59.2138C49.6091 59.2606 49.6049 59.3016 49.5965 59.3368C49.5965 59.3719 49.5965 59.4071 49.5965 59.4422V59.4949C49.588 59.5066 49.5838 59.5242 49.5838 59.5476V59.6355C49.5754 59.6472 49.5712 59.6589 49.5712 59.6707V59.7058C49.5712 59.7175 49.5669 59.7292 49.5585 59.7409C49.5585 59.7409 49.5585 59.7468 49.5585 59.7585C49.5585 59.7702 49.5543 59.7819 49.5458 59.7936H49.5585C49.5585 59.7936 49.5627 59.782 49.5712 59.7585C49.5712 59.7585 49.5754 59.7468 49.5838 59.7234C49.5923 59.7116 49.5965 59.6999 49.5965 59.6882C49.6049 59.6765 49.6091 59.6648 49.6091 59.6531C49.6176 59.6413 49.6218 59.6297 49.6218 59.6179C49.6302 59.6062 49.6345 59.5887 49.6345 59.5652C49.6514 59.5418 49.6598 59.5125 49.6598 59.4774C49.6767 59.4305 49.6936 59.3485 49.7105 59.2313C49.7273 59.161 49.7358 59.1142 49.7358 59.0908C49.7442 59.0673 49.7484 59.0439 49.7484 59.0205C49.7484 58.9853 49.7527 58.9561 49.7611 58.9326C49.7611 58.9092 49.7611 58.8858 49.7611 58.8623C49.7695 58.8272 49.7738 58.7979 49.7738 58.7745C49.7822 58.7393 49.7864 58.6866 49.7864 58.6163C49.7949 58.5577 49.7991 58.4992 49.7991 58.4406C49.7991 58.382 49.8033 58.3235 49.8118 58.2649V57.5269C49.8118 57.4683 49.8075 57.4097 49.7991 57.3511C49.7991 57.2926 49.7949 57.234 49.7864 57.1754C49.7864 57.1051 49.7822 57.0524 49.7738 57.0173C49.7738 56.9938 49.7695 56.9704 49.7611 56.947C49.7611 56.9118 49.7611 56.8825 49.7611 56.8591C49.7527 56.8357 49.7484 56.8123 49.7484 56.7888C49.7484 56.7537 49.7442 56.7244 49.7358 56.701C49.7358 56.6775 49.7315 56.6541 49.7231 56.6307C49.7231 56.6073 49.7231 56.5838 49.7231 56.5604C49.7062 56.4901 49.6978 56.4491 49.6978 56.4374C49.6893 56.4022 49.6767 56.3612 49.6598 56.3144C49.6598 56.2792 49.6514 56.2499 49.6345 56.2265C49.6345 56.1914 49.626 56.1621 49.6091 56.1387C49.5923 56.0918 49.5796 56.0566 49.5712 56.0332C49.5627 56.0215 49.5585 56.0098 49.5585 55.9981H49.5458C49.5458 55.9981 49.55 56.0098 49.5585 56.0332C49.5585 56.045 49.5585 56.0566 49.5585 56.0684C49.5669 56.0684 49.5712 56.0742 49.5712 56.0859C49.5712 56.1094 49.5754 56.1328 49.5838 56.1562V56.2441C49.5923 56.2675 49.5965 56.2968 49.5965 56.332C49.5965 56.3905 49.6007 56.4315 49.6091 56.455V56.5779C49.6176 56.6248 49.6218 56.6717 49.6218 56.7186C49.6218 56.7654 49.6218 56.8181 49.6218 56.8767V57.0348C49.6218 57.0583 49.6218 57.0876 49.6218 57.1227C49.6302 57.1461 49.6345 57.1695 49.6345 57.193V58.423ZM49.1153 57.6499C49.1153 57.4976 49.1111 57.2808 49.1026 56.9997C49.0942 56.7186 49.0646 56.4374 49.014 56.1562C48.9633 55.8751 48.8831 55.6349 48.7734 55.4358C48.6721 55.2249 48.5201 55.1195 48.3175 55.1195H47.8617C47.7688 55.1195 47.6886 55.1663 47.6211 55.2601C47.5535 55.3538 47.5197 55.4651 47.5197 55.5939V60.1627C47.5197 60.2915 47.5535 60.4028 47.6211 60.4965C47.6886 60.5785 47.7688 60.6254 47.8617 60.6371H48.3175C48.5201 60.6371 48.6721 60.5668 48.7734 60.4262C48.8831 60.2739 48.9633 60.0982 49.014 59.8991C49.0646 59.6999 49.0942 59.4891 49.1026 59.2665C49.1111 59.0439 49.1153 58.8565 49.1153 58.7042V57.6499ZM49.1153 50.5332C49.1153 50.3809 49.1111 50.1993 49.1026 49.9884C49.0942 49.7659 49.0646 49.555 49.014 49.3558C48.9633 49.1567 48.8831 48.9868 48.7734 48.8462C48.6721 48.694 48.5201 48.6178 48.3175 48.6178H47.8617C47.7688 48.6178 47.6886 48.6647 47.6211 48.7584C47.5535 48.8521 47.5197 48.9634 47.5197 49.0923V53.8191C47.5197 53.948 47.5535 54.0593 47.6211 54.153C47.6886 54.2467 47.7688 54.2936 47.8617 54.2936H48.3175C48.5201 54.2936 48.6721 54.2233 48.7734 54.0827C48.8831 53.9422 48.9633 53.7723 49.014 53.5731C49.0646 53.3623 49.0942 53.1514 49.1026 52.9405C49.1111 52.718 49.1153 52.5305 49.1153 52.3782V50.5332ZM49.6851 52.8527C49.702 52.7824 49.7105 52.7355 49.7105 52.7121C49.7273 52.6652 49.7358 52.6184 49.7358 52.5715C49.7442 52.5481 49.7484 52.5247 49.7484 52.5013C49.7484 52.4661 49.7527 52.4368 49.7611 52.4134C49.7611 52.3899 49.7611 52.3665 49.7611 52.3431C49.7695 52.308 49.7738 52.2728 49.7738 52.2377C49.7822 52.2025 49.7864 52.1439 49.7864 52.0619C49.7949 52.0034 49.7991 51.9448 49.7991 51.8862C49.7991 51.8277 49.8033 51.7691 49.8118 51.7105V51.3239C49.8118 51.195 49.8118 51.072 49.8118 50.9549C49.8118 50.826 49.8075 50.703 49.7991 50.5859C49.7906 50.5507 49.7864 50.5215 49.7864 50.498C49.7864 50.4629 49.7822 50.4336 49.7738 50.4102C49.7738 50.3282 49.7695 50.2696 49.7611 50.2344C49.7527 50.1759 49.7442 50.1231 49.7358 50.0763C49.7358 50.0294 49.7315 49.9826 49.7231 49.9357C49.7062 49.8654 49.6978 49.8186 49.6978 49.7951C49.6809 49.7483 49.6725 49.7131 49.6725 49.6897C49.6556 49.6428 49.6429 49.6077 49.6345 49.5843C49.6345 49.5491 49.626 49.5198 49.6091 49.4964C49.6007 49.4613 49.588 49.4203 49.5712 49.3734L49.5458 49.3383V49.3558C49.5458 49.3675 49.5458 49.3734 49.5458 49.3734C49.5543 49.3734 49.5585 49.3793 49.5585 49.391C49.5669 49.4027 49.5712 49.4203 49.5712 49.4437C49.5712 49.4671 49.5754 49.4905 49.5838 49.514V49.6018C49.5923 49.6253 49.5965 49.6604 49.5965 49.7073C49.5965 49.7307 49.5965 49.7541 49.5965 49.7775C49.6049 49.7893 49.6091 49.8069 49.6091 49.8303V49.9533C49.6176 50.0002 49.6218 50.047 49.6218 50.0939C49.6218 50.1407 49.6218 50.1934 49.6218 50.252V50.4277C49.6218 50.4511 49.6218 50.4805 49.6218 50.5156C49.6302 50.539 49.6345 50.5624 49.6345 50.5859V51.8862C49.626 51.9214 49.6218 51.9799 49.6218 52.0619V52.3958C49.6218 52.4544 49.6176 52.5071 49.6091 52.5539C49.6091 52.6008 49.6091 52.6477 49.6091 52.6945C49.6091 52.7414 49.6049 52.7883 49.5965 52.8351C49.5965 52.8703 49.5965 52.9054 49.5965 52.9405C49.5965 52.9991 49.5923 53.0342 49.5838 53.046V53.1514C49.5754 53.1514 49.5712 53.1631 49.5712 53.1865V53.2217C49.5712 53.2334 49.5669 53.2451 49.5585 53.2568C49.5585 53.2568 49.5585 53.2627 49.5585 53.2744C49.5585 53.2861 49.5543 53.2978 49.5458 53.3096L49.5712 53.2744C49.5712 53.2627 49.5712 53.2568 49.5712 53.2568C49.5796 53.2451 49.5838 53.2334 49.5838 53.2217C49.5923 53.2217 49.5965 53.21 49.5965 53.1865C49.6049 53.1865 49.6091 53.1748 49.6091 53.1514C49.6176 53.1514 49.6218 53.1397 49.6218 53.1163C49.6302 53.1045 49.6345 53.087 49.6345 53.0635C49.6514 53.0401 49.6598 53.0108 49.6598 52.9757C49.6767 52.9054 49.6851 52.8644 49.6851 52.8527Z" fill="#F4EDE8"/>
<path d="M55.0826 59.8288C55.1164 60.0279 55.1544 60.1744 55.1965 60.2681C55.2388 60.3618 55.2809 60.438 55.3233 60.4965C55.3654 60.5551 55.4034 60.6078 55.4372 60.6547C55.4709 60.7015 55.4964 60.7777 55.5133 60.8831H54.842C54.783 60.8831 54.7281 60.8538 54.6774 60.7953C54.6351 60.7367 54.6099 60.6664 54.6013 60.5844C54.6099 60.6664 54.5973 60.7367 54.5635 60.7953C54.5298 60.8538 54.4874 60.8831 54.4368 60.8831H53.7657C53.7489 60.7777 53.7531 60.7015 53.7783 60.6547C53.8038 60.6078 53.829 60.561 53.8544 60.5141C53.8796 60.4555 53.9008 60.3794 53.9177 60.2857C53.9346 60.1802 53.9303 60.0221 53.9051 59.8112V59.7936L53.6264 57.808C53.6095 57.6909 53.5631 57.5913 53.4871 57.5093C53.4112 57.4156 53.3268 57.3687 53.2338 57.3687H52.3602C52.2672 57.3687 52.1828 57.4156 52.1069 57.5093C52.0308 57.5913 51.9845 57.6909 51.9676 57.808L51.7017 59.7936V59.8112C51.6763 60.0221 51.668 60.1802 51.6763 60.2857C51.6932 60.3794 51.7143 60.4555 51.7395 60.5141C51.7733 60.561 51.7987 60.6078 51.8156 60.6547C51.8408 60.7015 51.8494 60.7777 51.8408 60.8831H51.1698C51.1107 60.8831 51.0643 60.8538 51.0305 60.7953C50.9967 60.7367 50.9841 60.6664 50.9925 60.5844C50.9841 60.6664 50.9587 60.7367 50.9165 60.7953C50.8743 60.8538 50.8237 60.8831 50.7646 60.8831H50.0934C50.1019 60.7777 50.123 60.7015 50.1567 60.6547C50.1905 60.6078 50.2285 60.5551 50.2707 60.4965C50.3129 60.438 50.3551 60.3618 50.3973 60.2681C50.4395 60.1744 50.4775 60.0279 50.5113 59.8288L51.0812 55.5588C51.098 55.3948 51.0854 55.2425 51.0432 55.1019C51.0009 54.9613 50.9334 54.8501 50.8406 54.768C50.9756 54.686 51.098 54.645 51.2078 54.645L51.8915 49.637C51.9169 49.4379 51.9212 49.2914 51.9043 49.1977C51.8874 49.0923 51.8663 49.0161 51.8408 48.9692C51.8156 48.9107 51.7902 48.858 51.765 48.8111C51.7395 48.7643 51.7355 48.6881 51.7524 48.5827H52.6006C52.7273 48.6061 52.7906 48.7057 52.7906 48.8814C52.7906 48.7994 52.8075 48.7349 52.8412 48.6881C52.8835 48.6295 52.9299 48.5944 52.9806 48.5827H53.8416C53.8585 48.6881 53.8544 48.7643 53.829 48.8111C53.8121 48.858 53.791 48.9107 53.7657 48.9692C53.7403 49.0161 53.7191 49.0923 53.7023 49.1977C53.6854 49.2914 53.6897 49.4379 53.7151 49.637L54.3861 54.645C54.4537 54.645 54.5169 54.6568 54.5761 54.6802C54.6351 54.7036 54.6943 54.7329 54.7533 54.768C54.5676 54.932 54.4874 55.1956 54.5129 55.5588L55.0826 59.8288ZM52.0434 53.538C52.0603 53.4677 52.0689 53.4033 52.0689 53.3447C52.0772 53.2744 52.0858 53.21 52.0941 53.1514C52.1364 52.882 52.1702 52.6301 52.1954 52.3958C52.2208 52.1498 52.246 51.9272 52.2715 51.7281C52.2884 51.6344 52.2967 51.5406 52.2967 51.4469C52.3052 51.3532 52.3136 51.2595 52.3221 51.1657C52.3305 51.0838 52.339 51.0076 52.3473 50.9373C52.3559 50.867 52.3642 50.8026 52.3728 50.744C52.3811 50.6855 52.3854 50.6328 52.3854 50.5859C52.3854 50.5273 52.3897 50.4805 52.398 50.4453V50.375L52.3854 50.4453C52.3771 50.4805 52.3685 50.5215 52.3602 50.5683C52.3516 50.6152 52.3433 50.6679 52.3347 50.7265C52.3178 50.785 52.3052 50.8553 52.2967 50.9373C52.2884 51.0076 52.2758 51.0779 52.2589 51.1482C52.242 51.2419 52.2251 51.3356 52.2082 51.4293C52.1997 51.5231 52.1871 51.6168 52.1702 51.7105C52.1279 51.9096 52.0858 52.1264 52.0434 52.3607C52.0097 52.5832 51.9719 52.8293 51.9295 53.0987C51.9295 53.169 51.9253 53.2334 51.9169 53.292C51.9084 53.3506 51.8958 53.415 51.8789 53.4853C51.8706 53.5556 51.862 53.6258 51.8537 53.6962C51.8451 53.7547 51.8368 53.8191 51.8282 53.8894C51.803 54.0183 51.7776 54.153 51.7524 54.2936C51.7355 54.4342 51.7186 54.5747 51.7017 54.7153C51.6848 54.8442 51.6637 54.9789 51.6382 55.1195C51.6214 55.2601 51.6045 55.3948 51.5876 55.5236C51.5793 55.5588 51.575 55.5939 51.575 55.6291C51.575 55.6525 51.5707 55.6818 51.5624 55.7169C51.5455 55.8106 51.5369 55.8809 51.5369 55.9278C51.5117 56.045 51.4948 56.1738 51.4864 56.3144C51.4695 56.4432 51.4526 56.5721 51.4357 56.701C51.4188 56.8298 51.4062 56.947 51.3977 57.0524C51.3724 57.3218 51.3471 57.5444 51.3217 57.7202C51.3049 57.8139 51.2922 57.9076 51.2837 58.0013C51.2753 58.095 51.2669 58.1887 51.2584 58.2825C51.2415 58.3645 51.2289 58.4464 51.2204 58.5285C51.2204 58.5987 51.2162 58.6632 51.2078 58.7218C51.1993 58.7803 51.1951 58.833 51.1951 58.8799C51.1951 58.9268 51.1909 58.9678 51.1824 59.0029C51.1824 59.0263 51.1782 59.0439 51.1698 59.0556C51.1698 59.0556 51.1698 59.0615 51.1698 59.0732V59.0908C51.1782 59.0908 51.1824 59.0849 51.1824 59.0732C51.1824 59.0498 51.1867 59.0263 51.1951 59.0029C51.2036 58.9795 51.2078 58.9443 51.2078 58.8975C51.2162 58.8389 51.2289 58.7803 51.2458 58.7218C51.2627 58.6632 51.2753 58.5987 51.2837 58.5285C51.3006 58.4582 51.3175 58.382 51.3344 58.3C51.3513 58.218 51.364 58.1302 51.3724 58.0364C51.3893 57.9427 51.4019 57.849 51.4104 57.7553C51.4273 57.6616 51.4442 57.562 51.461 57.4566C51.4864 57.3394 51.5075 57.2223 51.5243 57.1051C51.5412 56.988 51.5581 56.865 51.575 56.7361C51.6004 56.6073 51.6256 56.4784 51.6511 56.3495C51.6594 56.2909 51.668 56.2324 51.6763 56.1738C51.6848 56.1035 51.6932 56.0391 51.7017 55.9805L51.7395 55.7696C51.7481 55.7345 51.7524 55.6994 51.7524 55.6642C51.7524 55.6291 51.7564 55.5939 51.765 55.5588C51.7819 55.4299 51.803 55.3011 51.8282 55.1722C51.8537 55.0316 51.8746 54.8911 51.8915 54.7505C51.9084 54.6216 51.9253 54.4869 51.9421 54.3463C51.959 54.2057 51.9759 54.071 51.9928 53.9421C52.0013 53.8719 52.0097 53.8016 52.0182 53.7313C52.0266 53.661 52.0351 53.5966 52.0434 53.538ZM53.1199 56.5428C53.2127 56.5311 53.2845 56.4842 53.3351 56.4022C53.3943 56.3085 53.4152 56.1972 53.3984 56.0684L53.3225 55.5588C53.2887 55.3948 53.2295 55.2425 53.1451 55.1019C53.0693 54.9613 52.9763 54.8501 52.8667 54.768C52.968 54.686 53.0776 54.645 53.1958 54.645L52.7906 51.6402L52.3854 54.645C52.4952 54.645 52.6091 54.686 52.7273 54.768C52.6091 54.8501 52.5078 54.9613 52.4234 55.1019C52.3473 55.2425 52.2967 55.3948 52.2715 55.5588L52.2082 56.0684C52.1913 56.1972 52.2082 56.3085 52.2589 56.4022C52.3095 56.4842 52.3771 56.5311 52.4615 56.5428H53.1199ZM54.3987 59.0029C54.3987 59.0263 54.3987 59.0439 54.3987 59.0556C54.4073 59.0556 54.4116 59.0615 54.4116 59.0732V59.0029C54.403 58.9678 54.3987 58.9268 54.3987 58.8799C54.3987 58.833 54.3947 58.7803 54.3861 58.7218C54.3778 58.6632 54.3693 58.5987 54.3609 58.5285C54.3609 58.4464 54.3524 58.3645 54.3355 58.2825C54.3272 58.1887 54.3186 58.095 54.3103 58.0013C54.3017 57.9076 54.2891 57.8139 54.2722 57.7202C54.2468 57.5444 54.2216 57.3218 54.1961 57.0524C54.1793 56.947 54.1624 56.8298 54.1455 56.701C54.1372 56.5721 54.1246 56.4432 54.1077 56.3144C54.0908 56.2441 54.078 56.1797 54.0696 56.1211C54.0696 56.0625 54.0611 55.9981 54.0442 55.9278C54.0442 55.8809 54.0359 55.8106 54.019 55.7169C54.019 55.6818 54.0147 55.6525 54.0064 55.6291C54.0064 55.5939 54.0064 55.5588 54.0064 55.5236C53.9895 55.3948 53.9683 55.2601 53.9429 55.1195C53.926 54.9789 53.9091 54.8442 53.8923 54.7153C53.8754 54.5747 53.8544 54.4342 53.829 54.2936C53.8121 54.153 53.791 54.0183 53.7657 53.8894C53.7572 53.8191 53.7489 53.7547 53.7403 53.6962C53.732 53.6258 53.7234 53.5556 53.7151 53.4853C53.6982 53.415 53.6854 53.3506 53.677 53.292C53.6685 53.2334 53.6602 53.169 53.6516 53.0987C53.6095 52.8293 53.5672 52.5832 53.5251 52.3607C53.4913 52.1264 53.4618 51.9096 53.4364 51.7105C53.4195 51.6168 53.4026 51.5231 53.3858 51.4293C53.3689 51.3356 53.352 51.2419 53.3351 51.1482C53.3182 51.0779 53.3013 51.0076 53.2845 50.9373C53.2761 50.8553 53.2633 50.785 53.2464 50.7265C53.2381 50.6679 53.2295 50.6152 53.2212 50.5683C53.2127 50.5215 53.2043 50.4805 53.1958 50.4453L53.1832 50.375V50.4453C53.1917 50.5039 53.2043 50.6034 53.2212 50.744C53.2212 50.8026 53.2255 50.867 53.2338 50.9373C53.2424 51.0076 53.2507 51.0838 53.2592 51.1657C53.2676 51.2595 53.2761 51.3532 53.2845 51.4469C53.293 51.5406 53.3056 51.6344 53.3225 51.7281C53.3477 51.9272 53.3732 52.1498 53.3984 52.3958C53.4238 52.6301 53.4533 52.882 53.4871 53.1514C53.4956 53.21 53.4997 53.2744 53.4997 53.3447C53.5082 53.4033 53.5208 53.4677 53.5377 53.538C53.5463 53.5966 53.5546 53.661 53.5631 53.7313C53.5715 53.8016 53.58 53.8719 53.5884 53.9421C53.6052 54.071 53.6221 54.2057 53.639 54.3463C53.6644 54.4869 53.6854 54.6216 53.7023 54.7505C53.7191 54.8911 53.7403 55.0316 53.7657 55.1722C53.791 55.3011 53.8121 55.4299 53.829 55.5588C53.8376 55.5939 53.8416 55.6291 53.8416 55.6642C53.8416 55.6994 53.8459 55.7345 53.8544 55.7696L53.8923 55.9805C53.9008 56.0391 53.9091 56.1035 53.9177 56.1738C53.926 56.2324 53.9346 56.2909 53.9429 56.3495C53.9683 56.4784 53.9895 56.6073 54.0064 56.7361C54.0233 56.865 54.0401 56.988 54.057 57.1051C54.0739 57.2223 54.0908 57.3394 54.1077 57.4566C54.1329 57.562 54.1541 57.6616 54.1709 57.7553C54.1878 57.849 54.2047 57.9427 54.2216 58.0364C54.2385 58.1302 54.2554 58.218 54.2722 58.3C54.2974 58.464 54.3229 58.6046 54.3481 58.7218C54.365 58.7803 54.3735 58.8389 54.3735 58.8975C54.3819 58.9443 54.3904 58.9795 54.3987 59.0029Z" fill="#F4EDE8"/>
<path d="M60.3956 61.6211C60.4886 61.6446 60.5518 61.6856 60.5856 61.7442C60.6277 61.8027 60.6574 61.8613 60.6743 61.9199C60.6912 61.9901 60.6995 62.0663 60.6995 62.1483C60.4294 62.1483 60.1761 62.1014 59.9398 62.0077C59.7034 61.914 59.4923 61.7617 59.3065 61.5509C59.1294 61.34 58.9858 61.0647 58.8761 60.725C58.7748 60.3852 58.7242 59.9694 58.7242 59.4774V57.07C58.7242 56.9177 58.7199 56.7302 58.7114 56.5077C58.703 56.2851 58.6735 56.0742 58.6229 55.8751C58.5722 55.6759 58.4919 55.5061 58.3822 55.3655C58.2809 55.2132 58.129 55.1371 57.9264 55.1371H57.4071C57.3312 55.1605 57.2637 55.2191 57.2045 55.3128C57.1538 55.3948 57.1286 55.4943 57.1286 55.6115V59.8112C57.1286 60.0221 57.1412 60.1802 57.1667 60.2857C57.2004 60.3794 57.2342 60.4555 57.268 60.5141C57.3017 60.561 57.3312 60.6078 57.3564 60.6547C57.3902 60.7015 57.4071 60.7777 57.4071 60.8831H56.736C56.6854 60.8831 56.639 60.8538 56.5967 60.7952C56.5546 60.7367 56.5334 60.6723 56.5334 60.602C56.5334 60.6723 56.5123 60.7367 56.4702 60.7952C56.4364 60.8538 56.3898 60.8831 56.3308 60.8831H55.6724C55.6724 60.7777 55.685 60.7015 55.7102 60.6547C55.744 60.6078 55.778 60.561 55.8117 60.5141C55.8455 60.4555 55.875 60.3794 55.9002 60.2857C55.934 60.192 55.9509 60.0455 55.9509 59.8464V55.5588C55.9256 55.1956 55.8075 54.932 55.5963 54.768C55.6893 54.686 55.8075 54.645 55.9509 54.645V49.6194C55.9509 49.4203 55.934 49.2738 55.9002 49.1801C55.875 49.0864 55.8455 49.0161 55.8117 48.9692C55.778 48.9107 55.744 48.858 55.7102 48.8111C55.685 48.7643 55.6724 48.6881 55.6724 48.5827H56.3434C56.3941 48.5827 56.4405 48.612 56.4828 48.6705C56.5249 48.7174 56.546 48.7818 56.546 48.8638C56.546 48.6764 56.6136 48.5827 56.7486 48.5827H57.939C58.2091 48.5827 58.4624 48.653 58.6987 48.7935C58.9351 48.9341 59.142 49.1274 59.3194 49.3734C59.4965 49.6077 59.6359 49.8888 59.7372 50.2169C59.8385 50.5449 59.8934 50.8905 59.9017 51.2536V52.3958C59.9017 52.8878 59.8173 53.3388 59.6485 53.7489C59.4796 54.1589 59.2518 54.4869 58.9646 54.7329C59.2518 54.9672 59.4796 55.2952 59.6485 55.7169C59.8173 56.1269 59.9017 56.5779 59.9017 57.07V59.4071C59.9017 59.6531 59.9017 59.9049 59.9017 60.1627C59.9103 60.4087 59.9312 60.6371 59.965 60.848C59.9987 61.0471 60.0494 61.217 60.1169 61.3576C60.1845 61.4982 60.2774 61.586 60.3956 61.6211ZM59.2433 52.0971C59.2347 52.1205 59.2307 52.1498 59.2307 52.1849V52.5891C59.2221 52.636 59.2178 52.6828 59.2178 52.7297C59.2178 52.7648 59.2178 52.8 59.2178 52.8351C59.2178 52.8585 59.2138 52.8761 59.2052 52.8878C59.2052 52.8995 59.2052 52.9171 59.2052 52.9405V53.046C59.1969 53.0694 59.1926 53.0987 59.1926 53.1338C59.1926 53.1573 59.1884 53.1807 59.18 53.2041C59.18 53.2275 59.1758 53.2451 59.1672 53.2568V53.292L59.1546 53.3271C59.1546 53.3271 59.1631 53.3213 59.18 53.3096V53.292L59.1926 53.2744C59.201 53.2627 59.2052 53.2568 59.2052 53.2568C59.2052 53.2451 59.2095 53.2334 59.2178 53.2217C59.2264 53.1983 59.2347 53.1748 59.2433 53.1514C59.2516 53.1163 59.2602 53.087 59.2687 53.0635C59.277 53.0401 59.2813 53.0284 59.2813 53.0284C59.2813 53.0167 59.2854 52.9991 59.2939 52.9757C59.3025 52.9522 59.3065 52.9347 59.3065 52.923C59.3065 52.8995 59.3108 52.8761 59.3194 52.8527C59.3277 52.8293 59.332 52.8117 59.332 52.8C59.332 52.7883 59.3363 52.7707 59.3446 52.7472C59.3446 52.7238 59.3446 52.7062 59.3446 52.6945C59.3531 52.6711 59.3572 52.6477 59.3572 52.6242C59.3657 52.5774 59.37 52.5305 59.37 52.4837C59.3783 52.4368 59.3869 52.39 59.3952 52.3431C59.4038 52.308 59.4078 52.2552 59.4078 52.1849C59.4078 52.1615 59.4078 52.1381 59.4078 52.1147C59.4164 52.0912 59.4207 52.0678 59.4207 52.0444V51.4293C59.4207 51.359 59.4164 51.3063 59.4078 51.2712V51.2009C59.4078 51.1775 59.4038 51.1657 59.3952 51.1657C59.3952 51.1541 59.3952 51.1365 59.3952 51.1131C59.3952 51.0545 59.3869 50.9666 59.37 50.8495C59.3615 50.826 59.3572 50.8026 59.3572 50.7792C59.3572 50.7557 59.3531 50.7323 59.3446 50.7089C59.3446 50.6972 59.3403 50.6913 59.332 50.6913C59.332 50.6796 59.332 50.6679 59.332 50.6562C59.332 50.6444 59.3277 50.6386 59.3194 50.6386C59.3194 50.6269 59.3194 50.6152 59.3194 50.6034C59.3108 50.58 59.3065 50.5624 59.3065 50.5507C59.3065 50.539 59.3025 50.5215 59.2939 50.498C59.2854 50.4746 59.2813 50.457 59.2813 50.4453C59.2813 50.4336 59.277 50.416 59.2687 50.3926C59.2602 50.3809 59.2559 50.3692 59.2559 50.3574C59.2559 50.3457 59.2516 50.334 59.2433 50.3223C59.2264 50.2754 59.2178 50.252 59.2178 50.252C59.2095 50.2403 59.2052 50.2344 59.2052 50.2344C59.2052 50.2227 59.201 50.211 59.1926 50.1993C59.1841 50.1876 59.18 50.1759 59.18 50.1641C59.1715 50.1524 59.1672 50.1407 59.1672 50.129H59.1546C59.1546 50.129 59.1589 50.1407 59.1672 50.1641V50.1993C59.1758 50.211 59.18 50.2344 59.18 50.2696C59.18 50.2813 59.18 50.293 59.18 50.3047C59.1884 50.3047 59.1926 50.3164 59.1926 50.3399C59.1926 50.375 59.1969 50.4043 59.2052 50.4277V50.5156C59.2052 50.539 59.2052 50.5566 59.2052 50.5683C59.2138 50.58 59.2178 50.5976 59.2178 50.621C59.2178 50.7265 59.2221 50.8085 59.2307 50.867V51.1482C59.239 51.2068 59.2433 51.3005 59.2433 51.4293V52.0971ZM56.6347 53.907C56.6347 53.8484 56.6305 53.784 56.6221 53.7137C56.6221 53.6434 56.6221 53.5731 56.6221 53.5029V53.1163C56.6136 52.8585 56.6093 52.6125 56.6093 52.3782C56.6093 52.1439 56.6052 51.9214 56.5967 51.7105C56.5884 51.6168 56.5841 51.5231 56.5841 51.4293C56.5841 51.3356 56.5798 51.2478 56.5715 51.1657C56.5715 51.072 56.5672 50.99 56.5586 50.9198C56.5586 50.8495 56.5586 50.785 56.5586 50.7265C56.5586 50.6679 56.5546 50.6152 56.546 50.5683C56.546 50.5215 56.546 50.4805 56.546 50.4453V50.3574C56.5377 50.3574 56.5334 50.3633 56.5334 50.375V50.4453C56.5334 50.4805 56.5292 50.5215 56.5208 50.5683C56.5208 50.6152 56.5208 50.6679 56.5208 50.7265C56.5208 50.785 56.5166 50.8495 56.508 50.9198C56.508 50.99 56.508 51.072 56.508 51.1657C56.4997 51.2478 56.4954 51.3356 56.4954 51.4293C56.4954 51.5231 56.4911 51.6168 56.4828 51.7105C56.4742 51.9214 56.4702 52.1439 56.4702 52.3782C56.4702 52.6125 56.4659 52.8585 56.4574 53.1163V53.5029C56.4574 53.5731 56.4533 53.6434 56.4447 53.7137C56.4447 53.784 56.4447 53.8484 56.4447 53.907V55.5412C56.4447 55.6349 56.449 55.7052 56.4574 55.7521V56.332C56.4574 56.4608 56.4574 56.5897 56.4574 56.7186C56.4659 56.8357 56.4702 56.9528 56.4702 57.07C56.4702 57.1988 56.4702 57.316 56.4702 57.4214C56.4785 57.5269 56.4828 57.6323 56.4828 57.7377C56.4911 57.8431 56.4954 57.9427 56.4954 58.0364C56.4954 58.1184 56.4997 58.2063 56.508 58.3C56.508 58.382 56.508 58.4582 56.508 58.5285C56.5166 58.5987 56.5208 58.6632 56.5208 58.7218C56.5208 58.7803 56.5208 58.8389 56.5208 58.8975C56.5292 58.9443 56.5334 58.9795 56.5334 59.0029V59.0908C56.5334 59.1025 56.5377 59.1084 56.546 59.1084V59.0029C56.546 58.9795 56.546 58.9443 56.546 58.8975C56.5546 58.8389 56.5586 58.7803 56.5586 58.7218C56.5586 58.6632 56.5586 58.5987 56.5586 58.5285C56.5672 58.4582 56.5715 58.382 56.5715 58.3C56.5798 58.2063 56.5841 58.1184 56.5841 58.0364C56.5841 57.9427 56.5884 57.8431 56.5967 57.7377C56.5967 57.6323 56.5967 57.5269 56.5967 57.4214C56.6052 57.316 56.6093 57.1988 56.6093 57.07C56.6093 56.9528 56.6093 56.8357 56.6093 56.7186C56.6179 56.5897 56.6221 56.4608 56.6221 56.332V55.9454C56.6221 55.8517 56.6262 55.7872 56.6347 55.7521V53.907ZM58.7242 51.3239C58.7242 51.1716 58.7199 50.9842 58.7114 50.7616C58.703 50.539 58.6735 50.3282 58.6229 50.129C58.5722 49.9298 58.4919 49.76 58.3822 49.6194C58.2809 49.4671 58.129 49.391 57.9264 49.391H57.4706C57.3776 49.4027 57.2975 49.4554 57.2299 49.5491C57.1624 49.6428 57.1286 49.7541 57.1286 49.883V53.8367C57.1286 53.9656 57.1624 54.0769 57.2299 54.1706C57.2975 54.2643 57.3776 54.3112 57.4706 54.3112H57.9264C58.129 54.3112 58.2809 54.2409 58.3822 54.1003C58.4919 53.9597 58.5722 53.7899 58.6229 53.5907C58.6735 53.3798 58.703 53.169 58.7114 52.9581C58.7199 52.7355 58.7242 52.5481 58.7242 52.3958V51.3239ZM59.5726 60.9534C59.5726 60.9534 59.5683 60.9475 59.5598 60.9358L59.5472 60.9183C59.5389 60.8948 59.5303 60.8714 59.522 60.848C59.522 60.8246 59.5134 60.8011 59.4965 60.7777C59.4882 60.7425 59.4796 60.7074 59.4713 60.6723C59.4628 60.6254 59.4544 60.5727 59.4459 60.5141C59.429 60.397 59.4207 60.2857 59.4207 60.1802C59.4121 60.1216 59.4078 60.0631 59.4078 60.0045C59.4078 59.9342 59.4078 59.8581 59.4078 59.7761V58.8448C59.4078 58.7628 59.4078 58.6808 59.4078 58.5987C59.4078 58.5167 59.4121 58.4289 59.4207 58.3352C59.4207 58.2532 59.4207 58.1712 59.4207 58.0892C59.4207 58.0072 59.4164 57.9251 59.4078 57.8431V57.5971C59.4078 57.48 59.4038 57.398 59.3952 57.3511C59.3952 57.2691 59.391 57.193 59.3826 57.1227C59.3826 57.0407 59.3783 56.9645 59.37 56.8943C59.3531 56.7302 59.3363 56.5897 59.3194 56.4725C59.3108 56.414 59.3025 56.3612 59.2939 56.3144C59.2854 56.2558 59.2728 56.1972 59.2559 56.1387C59.239 56.0801 59.2264 56.0332 59.2178 55.9981C59.2095 55.9629 59.1969 55.9278 59.18 55.8927C59.1631 55.8575 59.1503 55.8282 59.142 55.8048C59.1334 55.7814 59.1251 55.7579 59.1165 55.7345C59.1082 55.7345 59.0997 55.7286 59.0913 55.7169C59.0828 55.7169 59.0787 55.7111 59.0787 55.6994L59.0913 55.7169C59.0913 55.7286 59.0956 55.7404 59.1039 55.7521C59.1039 55.7638 59.1039 55.7755 59.1039 55.7872C59.1125 55.7872 59.1165 55.7989 59.1165 55.8224C59.1251 55.8341 59.1294 55.8458 59.1294 55.8575C59.1294 55.8692 59.1334 55.8868 59.142 55.9102C59.1503 55.9571 59.1631 56.0391 59.18 56.1562C59.1884 56.2148 59.1926 56.2734 59.1926 56.332C59.201 56.3905 59.2095 56.4491 59.2178 56.5077C59.2178 56.5663 59.2178 56.6307 59.2178 56.701C59.2264 56.7596 59.2307 56.8298 59.2307 56.9118V59.0908C59.2307 59.1376 59.2307 59.1786 59.2307 59.2138C59.239 59.2489 59.2433 59.2899 59.2433 59.3368C59.2433 59.4188 59.2433 59.5008 59.2433 59.5828C59.2516 59.6531 59.2602 59.7234 59.2687 59.7936C59.277 59.8639 59.2813 59.9342 59.2813 60.0045C59.2897 60.0748 59.2982 60.1392 59.3065 60.1978C59.3234 60.2681 59.3363 60.3325 59.3446 60.3911C59.3531 60.438 59.3657 60.4907 59.3826 60.5493C59.3995 60.6078 59.4121 60.6547 59.4207 60.6898C59.429 60.725 59.4416 60.7601 59.4585 60.7952L59.4839 60.8304C59.4923 60.8421 59.4965 60.8538 59.4965 60.8656C59.4965 60.8656 59.5008 60.8714 59.5091 60.8831L59.5598 60.9534H59.5726Z" fill="#F4EDE8"/>
<path d="M64.1925 52.3958C64.1925 52.8878 64.1081 53.3388 63.9393 53.7489C63.7704 54.1589 63.5424 54.4869 63.2554 54.7329C63.5424 54.9672 63.7704 55.2952 63.9393 55.7169C64.1081 56.1269 64.1925 56.5779 64.1925 57.07V58.2122C64.1842 58.5871 64.1293 58.9385 64.028 59.2665C63.9267 59.5828 63.7873 59.8639 63.6099 60.11C63.4328 60.3443 63.2259 60.5317 62.9895 60.6723C62.7532 60.8128 62.4999 60.8831 62.2298 60.8831H61.0268C60.9762 60.8831 60.9298 60.8538 60.8875 60.7953C60.8454 60.7367 60.8242 60.6723 60.8242 60.602C60.8242 60.6723 60.803 60.7367 60.761 60.7953C60.7272 60.8538 60.6806 60.8831 60.6216 60.8831H59.9632C59.9632 60.7777 59.9758 60.7015 60.001 60.6547C60.0348 60.6078 60.0685 60.561 60.1023 60.5141C60.1361 60.4555 60.1658 60.3794 60.191 60.2857C60.2247 60.192 60.2416 60.0455 60.2416 59.8464V55.5588C60.2164 55.1956 60.0982 54.932 59.8871 54.768C59.9801 54.686 60.0982 54.645 60.2416 54.645V49.6194C60.2416 49.4203 60.2247 49.2738 60.191 49.1801C60.1658 49.0864 60.1361 49.0161 60.1023 48.9692C60.0685 48.9107 60.0348 48.858 60.001 48.8111C59.9758 48.7643 59.9632 48.6881 59.9632 48.5827H60.6342C60.6849 48.5827 60.7312 48.612 60.7736 48.6705C60.8157 48.7174 60.8368 48.7818 60.8368 48.8638C60.8368 48.6764 60.9043 48.5827 61.0394 48.5827H62.2298C62.4999 48.5827 62.7532 48.653 62.9895 48.7935C63.2259 48.9341 63.4328 49.1274 63.6099 49.3734C63.7873 49.6077 63.9267 49.8888 64.028 50.2169C64.1293 50.5449 64.1842 50.8905 64.1925 51.2536V52.3958ZM60.9255 53.907C60.9255 53.8484 60.9212 53.784 60.9129 53.7137C60.9129 53.6434 60.9129 53.5731 60.9129 53.5029V53.1163C60.9043 52.8585 60.9001 52.6125 60.9001 52.3782C60.9001 52.1439 60.896 51.9214 60.8875 51.7105C60.8791 51.6168 60.8749 51.5231 60.8749 51.4293C60.8749 51.3356 60.8706 51.2478 60.8623 51.1657C60.8623 51.072 60.858 50.99 60.8494 50.9198C60.8494 50.8495 60.8494 50.785 60.8494 50.7265C60.8494 50.6679 60.8454 50.6152 60.8368 50.5683C60.8368 50.5215 60.8368 50.4805 60.8368 50.4453V50.3574C60.8285 50.3574 60.8242 50.3633 60.8242 50.375V50.4453C60.8242 50.4805 60.8199 50.5215 60.8116 50.5683C60.8116 50.6152 60.8116 50.6679 60.8116 50.7265C60.8116 50.785 60.8073 50.8495 60.7988 50.9198C60.7988 50.99 60.7988 51.072 60.7988 51.1657C60.7904 51.2478 60.7862 51.3356 60.7862 51.4293C60.7862 51.5231 60.7819 51.6168 60.7736 51.7105C60.765 51.9214 60.761 52.1439 60.761 52.3782C60.761 52.6125 60.7567 52.8585 60.7481 53.1163V53.5029C60.7481 53.5731 60.7441 53.6434 60.7355 53.7137C60.7355 53.784 60.7355 53.8484 60.7355 53.907V55.5412C60.7355 55.6349 60.7398 55.7052 60.7481 55.7521V56.332C60.7481 56.4608 60.7481 56.5897 60.7481 56.7186C60.7567 56.8357 60.761 56.9528 60.761 57.07C60.761 57.1988 60.761 57.316 60.761 57.4214C60.7693 57.5269 60.7736 57.6323 60.7736 57.7377C60.7819 57.8431 60.7862 57.9427 60.7862 58.0364C60.7862 58.1184 60.7904 58.2063 60.7988 58.3C60.7988 58.382 60.7988 58.4582 60.7988 58.5285C60.8073 58.5987 60.8116 58.6632 60.8116 58.7218C60.8116 58.7803 60.8116 58.8389 60.8116 58.8975C60.8199 58.9443 60.8242 58.9795 60.8242 59.0029V59.0908C60.8242 59.1025 60.8285 59.1084 60.8368 59.1084V59.0029C60.8368 58.9795 60.8368 58.9443 60.8368 58.8975C60.8454 58.8389 60.8494 58.7803 60.8494 58.7218C60.8494 58.6632 60.8494 58.5987 60.8494 58.5285C60.858 58.4582 60.8623 58.382 60.8623 58.3C60.8706 58.2063 60.8749 58.1184 60.8749 58.0364C60.8749 57.9427 60.8791 57.8431 60.8875 57.7377C60.8875 57.6323 60.8875 57.5269 60.8875 57.4214C60.896 57.316 60.9001 57.1988 60.9001 57.07C60.9001 56.9528 60.9001 56.8357 60.9001 56.7186C60.9086 56.5897 60.9129 56.4608 60.9129 56.332V55.9454C60.9129 55.8517 60.917 55.7872 60.9255 55.7521V53.907ZM63.5341 57.9837C63.5255 58.0072 63.5215 58.0364 63.5215 58.0716V58.4758C63.5129 58.5226 63.5086 58.5695 63.5086 58.6163C63.5086 58.6515 63.5086 58.6866 63.5086 58.7218C63.5086 58.7452 63.5046 58.7628 63.496 58.7745C63.496 58.7862 63.496 58.8038 63.496 58.8272V58.9326C63.4877 58.9561 63.4834 58.9853 63.4834 59.0205C63.4834 59.0439 63.4791 59.0673 63.4708 59.0908C63.4708 59.1142 63.4665 59.1318 63.458 59.1435V59.1786L63.4454 59.2138C63.4454 59.2138 63.4539 59.2079 63.4708 59.1962V59.1786L63.4834 59.161C63.4917 59.1494 63.496 59.1435 63.496 59.1435C63.496 59.1318 63.5003 59.12 63.5086 59.1084C63.5172 59.0849 63.5255 59.0615 63.5341 59.0381C63.5424 59.0029 63.5509 58.9736 63.5593 58.9502C63.5678 58.9267 63.5721 58.9151 63.5721 58.9151C63.5721 58.9033 63.5762 58.8858 63.5847 58.8623C63.593 58.8389 63.5973 58.8213 63.5973 58.8096C63.5973 58.7979 63.6016 58.7803 63.6099 58.7569C63.6185 58.7335 63.6228 58.7159 63.6228 58.7042C63.6228 58.6808 63.6268 58.6573 63.6354 58.6339C63.6354 58.6105 63.6354 58.5929 63.6354 58.5812C63.6437 58.5577 63.648 58.5343 63.648 58.5109C63.6565 58.464 63.6606 58.4172 63.6606 58.3703C63.6691 58.3235 63.6775 58.2766 63.686 58.2297C63.6943 58.1946 63.6986 58.1419 63.6986 58.0716C63.6986 58.0482 63.6986 58.0247 63.6986 58.0013C63.7072 57.9779 63.7112 57.9545 63.7112 57.931V57.316C63.7112 57.2457 63.7072 57.193 63.6986 57.1578V57.0876C63.6986 57.0641 63.6943 57.0524 63.686 57.0524C63.686 57.0407 63.686 57.029 63.686 57.0173C63.686 56.9587 63.6817 56.9118 63.6734 56.8767C63.6734 56.8298 63.6691 56.783 63.6606 56.7361C63.6522 56.7127 63.648 56.6892 63.648 56.6658C63.648 56.6424 63.6437 56.619 63.6354 56.5955C63.6354 56.5838 63.6311 56.5779 63.6228 56.5779C63.6228 56.5663 63.6228 56.5545 63.6228 56.5428C63.6228 56.5311 63.6185 56.5253 63.6099 56.5253C63.6099 56.5135 63.6099 56.5018 63.6099 56.4901C63.6016 56.4667 63.5973 56.4491 63.5973 56.4374C63.5973 56.4257 63.593 56.4081 63.5847 56.3847C63.5762 56.3612 63.5721 56.3437 63.5721 56.332C63.5721 56.3202 63.5678 56.3027 63.5593 56.2792C63.5509 56.2675 63.5467 56.2558 63.5467 56.2441C63.5467 56.2324 63.5424 56.2207 63.5341 56.2089C63.5172 56.1621 63.5086 56.1387 63.5086 56.1387C63.5003 56.1269 63.496 56.1211 63.496 56.1211C63.496 56.1094 63.4917 56.0976 63.4834 56.086C63.4749 56.0742 63.4708 56.0625 63.4708 56.0508L63.4454 56.0156C63.4454 56.0156 63.4496 56.0274 63.458 56.0508V56.086C63.4665 56.0976 63.4708 56.1211 63.4708 56.1562C63.4708 56.1679 63.4708 56.1797 63.4708 56.1914C63.4791 56.1914 63.4834 56.2031 63.4834 56.2265C63.4834 56.2617 63.4877 56.2909 63.496 56.3144V56.4022C63.496 56.4257 63.496 56.4432 63.496 56.455C63.5046 56.4667 63.5086 56.4842 63.5086 56.5077C63.5086 56.6131 63.5129 56.6951 63.5215 56.7537V57.0348C63.5298 57.0934 63.5341 57.1871 63.5341 57.316V57.9837ZM63.015 57.07C63.015 56.9177 63.0107 56.7302 63.0021 56.5077C62.9938 56.2851 62.9643 56.0742 62.9134 55.8751C62.8628 55.6759 62.7827 55.5061 62.673 55.3655C62.5717 55.2132 62.4198 55.1371 62.2172 55.1371H61.7611C61.6684 55.1488 61.5882 55.2015 61.5207 55.2952C61.4532 55.3889 61.4194 55.5002 61.4194 55.6291V59.5828C61.4194 59.7116 61.4532 59.8229 61.5207 59.9167C61.5882 60.0104 61.6684 60.0572 61.7611 60.0572H62.2172C62.4198 60.0572 62.5717 59.9869 62.673 59.8464C62.7827 59.7058 62.8628 59.5359 62.9134 59.3368C62.9643 59.1259 62.9938 58.9151 63.0021 58.7042C63.0107 58.4816 63.015 58.2942 63.015 58.1419V57.07ZM63.015 51.3239C63.015 51.1716 63.0107 50.9842 63.0021 50.7616C62.9938 50.539 62.9643 50.3282 62.9134 50.129C62.8628 49.9298 62.7827 49.76 62.673 49.6194C62.5717 49.4671 62.4198 49.391 62.2172 49.391H61.7611C61.6684 49.4027 61.5882 49.4554 61.5207 49.5491C61.4532 49.6428 61.4194 49.7541 61.4194 49.883V53.8367C61.4194 53.9656 61.4532 54.0769 61.5207 54.1706C61.5882 54.2643 61.6684 54.3112 61.7611 54.3112H62.2172C62.4198 54.3112 62.5717 54.2409 62.673 54.1003C62.7827 53.9597 62.8628 53.7899 62.9134 53.5907C62.9643 53.3798 62.9938 53.169 63.0021 52.9581C63.0107 52.7355 63.015 52.5481 63.015 52.3958V51.3239ZM63.5593 53.0635C63.5678 53.0401 63.5721 53.0284 63.5721 53.0284C63.5721 53.0167 63.5762 52.9991 63.5847 52.9757C63.593 52.9522 63.5973 52.9347 63.5973 52.923C63.5973 52.8995 63.6016 52.8761 63.6099 52.8527C63.6185 52.8293 63.6228 52.8117 63.6228 52.8C63.6228 52.7883 63.6268 52.7707 63.6354 52.7472C63.6354 52.7238 63.6354 52.7062 63.6354 52.6945C63.6437 52.6711 63.648 52.6477 63.648 52.6242C63.6565 52.5774 63.6606 52.5305 63.6606 52.4837C63.6691 52.4368 63.6775 52.39 63.686 52.3431C63.6943 52.308 63.6986 52.2552 63.6986 52.1849C63.6986 52.1615 63.6986 52.1381 63.6986 52.1147C63.7072 52.0912 63.7112 52.0678 63.7112 52.0444V51.4293C63.7112 51.359 63.7072 51.3064 63.6986 51.2712V51.2009C63.6986 51.1775 63.6943 51.1657 63.686 51.1657C63.686 51.1541 63.686 51.1365 63.686 51.1131C63.686 51.0545 63.6775 50.9666 63.6606 50.8495C63.6522 50.826 63.648 50.8026 63.648 50.7792C63.648 50.7557 63.6437 50.7323 63.6354 50.7089C63.6354 50.6972 63.6311 50.6913 63.6228 50.6913C63.6228 50.6796 63.6228 50.6679 63.6228 50.6562C63.6228 50.6444 63.6185 50.6386 63.6099 50.6386C63.6099 50.6269 63.6099 50.6152 63.6099 50.6034C63.6016 50.58 63.5973 50.5624 63.5973 50.5507C63.5973 50.539 63.593 50.5215 63.5847 50.498C63.5762 50.4746 63.5721 50.457 63.5721 50.4453C63.5721 50.4336 63.5678 50.416 63.5593 50.3926C63.5509 50.3809 63.5467 50.3692 63.5467 50.3574C63.5467 50.3457 63.5424 50.334 63.5341 50.3223C63.5172 50.2754 63.5086 50.252 63.5086 50.252C63.5003 50.2403 63.496 50.2344 63.496 50.2344C63.496 50.2227 63.4917 50.211 63.4834 50.1993C63.4749 50.1876 63.4708 50.1759 63.4708 50.1641C63.4623 50.1524 63.458 50.1407 63.458 50.129H63.4454C63.4454 50.129 63.4496 50.1407 63.458 50.1641V50.1993C63.4665 50.211 63.4708 50.2344 63.4708 50.2696C63.4708 50.2813 63.4708 50.293 63.4708 50.3047C63.4791 50.3047 63.4834 50.3164 63.4834 50.3399C63.4834 50.375 63.4877 50.4043 63.496 50.4277V50.5156C63.496 50.539 63.496 50.5566 63.496 50.5683C63.5046 50.58 63.5086 50.5976 63.5086 50.621C63.5086 50.7265 63.5129 50.8085 63.5215 50.867V51.1482C63.5298 51.2068 63.5341 51.3005 63.5341 51.4293V52.0971C63.5255 52.1205 63.5215 52.1498 63.5215 52.1849V52.5891C63.5129 52.636 63.5086 52.6828 63.5086 52.7297C63.5086 52.7648 63.5086 52.8 63.5086 52.8351C63.5086 52.8585 63.5046 52.8761 63.496 52.8878C63.496 52.8995 63.496 52.9171 63.496 52.9405V53.046C63.4877 53.0694 63.4834 53.0987 63.4834 53.1338C63.4834 53.1573 63.4791 53.1807 63.4708 53.2041C63.4708 53.2275 63.4665 53.2451 63.458 53.2568V53.292L63.4454 53.3271C63.4454 53.3271 63.4539 53.3213 63.4708 53.3096V53.292L63.4834 53.2744C63.4917 53.2627 63.496 53.2568 63.496 53.2568C63.496 53.2451 63.5003 53.2334 63.5086 53.2217C63.5172 53.1983 63.5255 53.1748 63.5341 53.1514C63.5424 53.1163 63.5509 53.087 63.5593 53.0635Z" fill="#F4EDE8"/>
<path d="M68.5085 59.8112C68.5085 60.0221 68.5213 60.1802 68.5465 60.2857C68.5803 60.3794 68.6141 60.4555 68.6478 60.5141C68.6816 60.561 68.7111 60.6078 68.7365 60.6547C68.7703 60.7015 68.7872 60.7777 68.7872 60.8831H65.3428C65.2921 60.8831 65.2458 60.8538 65.2034 60.7953C65.1613 60.7367 65.1402 60.6723 65.1402 60.602C65.1402 60.6723 65.119 60.7367 65.0769 60.7953C65.0432 60.8538 64.9968 60.8831 64.9376 60.8831H64.2791C64.2791 60.7777 64.2918 60.7015 64.3172 60.6547C64.351 60.6078 64.3847 60.561 64.4185 60.5141C64.4523 60.4555 64.4817 60.3794 64.5072 60.2857C64.541 60.192 64.5578 60.0455 64.5578 59.8464V55.5588C64.5324 55.1956 64.4142 54.932 64.2031 54.768C64.296 54.686 64.4142 54.645 64.5578 54.645V49.6194C64.5578 49.4203 64.541 49.2738 64.5072 49.1801C64.4817 49.0864 64.4523 49.0161 64.4185 48.9692C64.3847 48.9107 64.351 48.858 64.3172 48.8111C64.2918 48.7643 64.2791 48.6881 64.2791 48.5827H64.9502C65.0008 48.5827 65.0474 48.612 65.0895 48.6705C65.1319 48.7174 65.1528 48.7818 65.1528 48.8638C65.1528 48.6764 65.2203 48.5827 65.3554 48.5827H68.7872C68.7872 48.6881 68.7703 48.7643 68.7365 48.8111C68.7111 48.858 68.6816 48.9107 68.6478 48.9692C68.6141 49.0161 68.5803 49.0923 68.5465 49.1977C68.5213 49.2914 68.5085 49.4437 68.5085 49.6546V51.9916C68.2131 51.9916 67.9851 51.9155 67.8248 51.7632C67.6729 51.5992 67.5588 51.4176 67.4829 51.2185C67.3899 50.9959 67.3393 50.7323 67.3309 50.4277V49.883C67.3309 49.7541 67.2972 49.6428 67.2296 49.5491C67.1621 49.4554 67.082 49.4027 66.989 49.391H66.0773C65.9843 49.4027 65.9042 49.4554 65.8367 49.5491C65.7691 49.6428 65.7354 49.7541 65.7354 49.883V53.8367C65.7354 53.9656 65.7691 54.0769 65.8367 54.1706C65.9042 54.2643 65.9843 54.3112 66.0773 54.3112H66.166C66.2588 54.3112 66.3348 54.2643 66.3938 54.1706C66.4614 54.0769 66.4951 53.9656 66.4951 53.8367V53.8191C66.5037 53.6434 66.5374 53.4911 66.5964 53.3623C66.6471 53.2451 66.7232 53.1397 66.8244 53.046C66.9257 52.9522 67.0734 52.9054 67.2677 52.9054V56.5428C67.0734 56.5428 66.9257 56.496 66.8244 56.4022C66.7232 56.3085 66.6471 56.2031 66.5964 56.086C66.5374 55.9571 66.5037 55.8048 66.4951 55.6291C66.4951 55.5002 66.4614 55.3889 66.3938 55.2952C66.3348 55.2015 66.2588 55.1488 66.166 55.1371H66.0773C65.9843 55.1488 65.9042 55.2015 65.8367 55.2952C65.7691 55.3889 65.7354 55.5002 65.7354 55.6291V59.5828C65.7354 59.7116 65.7691 59.8229 65.8367 59.9167C65.9042 60.0104 65.9843 60.0572 66.0773 60.0572H66.989C67.082 60.0572 67.1621 60.0104 67.2296 59.9167C67.2972 59.8229 67.3309 59.7116 67.3309 59.5828V59.0205C67.3393 58.7276 67.3899 58.4699 67.4829 58.2473C67.5588 58.0482 67.6729 57.8666 67.8248 57.7026C67.9851 57.5386 68.2131 57.4566 68.5085 57.4566V59.8112ZM65.2415 53.907C65.2415 53.8484 65.2372 53.784 65.2289 53.7137C65.2289 53.6434 65.2289 53.5731 65.2289 53.5029V53.1163C65.2203 52.8585 65.2163 52.6125 65.2163 52.3782C65.2163 52.1439 65.212 51.9214 65.2034 51.7105C65.1951 51.6168 65.1908 51.5231 65.1908 51.4293C65.1908 51.3356 65.1866 51.2478 65.1782 51.1657C65.1782 51.072 65.174 50.99 65.1656 50.9198C65.1656 50.8495 65.1656 50.785 65.1656 50.7265C65.1656 50.6679 65.1614 50.6152 65.1528 50.5683C65.1528 50.5215 65.1528 50.4805 65.1528 50.4453V50.3574C65.1445 50.3574 65.1402 50.3633 65.1402 50.375V50.4453C65.1402 50.4805 65.1359 50.5215 65.1276 50.5683C65.1276 50.6152 65.1276 50.6679 65.1276 50.7265C65.1276 50.785 65.1233 50.8495 65.115 50.9198C65.115 50.99 65.115 51.072 65.115 51.1657C65.1064 51.2478 65.1021 51.3356 65.1021 51.4293C65.1021 51.5231 65.0981 51.6168 65.0895 51.7105C65.0812 51.9214 65.0769 52.1439 65.0769 52.3782C65.0769 52.6125 65.0727 52.8585 65.0643 53.1163V53.5029C65.0643 53.5731 65.0601 53.6434 65.0515 53.7137C65.0515 53.784 65.0515 53.8484 65.0515 53.907V55.5412C65.0515 55.6349 65.0558 55.7052 65.0643 55.7521V56.332C65.0643 56.4608 65.0643 56.5897 65.0643 56.7186C65.0727 56.8357 65.0769 56.9528 65.0769 57.07C65.0769 57.1988 65.0769 57.316 65.0769 57.4214C65.0853 57.5269 65.0895 57.6323 65.0895 57.7377C65.0981 57.8431 65.1021 57.9427 65.1021 58.0364C65.1021 58.1184 65.1064 58.2063 65.115 58.3C65.115 58.382 65.115 58.4582 65.115 58.5285C65.1233 58.5987 65.1276 58.6632 65.1276 58.7218C65.1276 58.7803 65.1276 58.8389 65.1276 58.8975C65.1359 58.9443 65.1402 58.9795 65.1402 59.0029V59.0908C65.1402 59.1025 65.1445 59.1084 65.1528 59.1084V59.0029C65.1528 58.9795 65.1528 58.9443 65.1528 58.8975C65.1614 58.8389 65.1656 58.7803 65.1656 58.7218C65.1656 58.6632 65.1656 58.5987 65.1656 58.5285C65.174 58.4582 65.1782 58.382 65.1782 58.3C65.1866 58.2063 65.1908 58.1184 65.1908 58.0364C65.1908 57.9427 65.1951 57.8431 65.2034 57.7377C65.2034 57.6323 65.2034 57.5269 65.2034 57.4214C65.212 57.316 65.2163 57.1988 65.2163 57.07C65.2163 56.9528 65.2163 56.8357 65.2163 56.7186C65.2246 56.5897 65.2289 56.4608 65.2289 56.332V55.9454C65.2289 55.8517 65.2332 55.7872 65.2415 55.7521V53.907Z" fill="#F4EDE8"/>
<path d="M73.6028 61.6211C73.6955 61.6446 73.759 61.6856 73.7928 61.7442C73.8349 61.8027 73.8644 61.8613 73.8812 61.9199C73.8981 61.9901 73.9067 62.0663 73.9067 62.1483C73.6365 62.1483 73.3833 62.1014 73.1469 62.0077C72.9106 61.914 72.6994 61.7617 72.5137 61.5509C72.3365 61.34 72.1929 61.0647 72.0831 60.725C71.9818 60.3852 71.9311 59.9694 71.9311 59.4774V57.07C71.9311 56.9177 71.9271 56.7302 71.9185 56.5077C71.9102 56.2851 71.8805 56.0742 71.8298 55.8751C71.7792 55.6759 71.699 55.5061 71.5894 55.3655C71.4881 55.2132 71.3362 55.1371 71.1336 55.1371H70.6142C70.5384 55.1605 70.4708 55.2191 70.4116 55.3128C70.361 55.3948 70.3358 55.4943 70.3358 55.6115V59.8112C70.3358 60.0221 70.3484 60.1802 70.3736 60.2857C70.4074 60.3794 70.4411 60.4555 70.4749 60.5141C70.5087 60.561 70.5384 60.6078 70.5636 60.6547C70.5974 60.7015 70.6142 60.7777 70.6142 60.8831H69.9432C69.8925 60.8831 69.8459 60.8538 69.8038 60.7952C69.7615 60.7367 69.7406 60.6723 69.7406 60.602C69.7406 60.6723 69.7194 60.7367 69.6771 60.7952C69.6433 60.8538 69.597 60.8831 69.538 60.8831H68.8796C68.8796 60.7777 68.8922 60.7015 68.9174 60.6547C68.9511 60.6078 68.9849 60.561 69.0187 60.5141C69.0524 60.4555 69.0822 60.3794 69.1074 60.2857C69.1411 60.192 69.158 60.0455 69.158 59.8464V55.5588C69.1328 55.1956 69.0146 54.932 68.8035 54.768C68.8964 54.686 69.0146 54.645 69.158 54.645V49.6194C69.158 49.4203 69.1411 49.2738 69.1074 49.1801C69.0822 49.0864 69.0524 49.0161 69.0187 48.9692C68.9849 48.9107 68.9511 48.858 68.9174 48.8111C68.8922 48.7643 68.8796 48.6881 68.8796 48.5827H69.5506C69.6013 48.5827 69.6476 48.612 69.6899 48.6705C69.732 48.7174 69.7532 48.7818 69.7532 48.8638C69.7532 48.6764 69.8207 48.5827 69.9558 48.5827H71.1462C71.4163 48.5827 71.6695 48.653 71.9059 48.7935C72.1423 48.9341 72.3491 49.1274 72.5263 49.3734C72.7037 49.6077 72.843 49.8888 72.9443 50.2169C73.0456 50.5449 73.1003 50.8905 73.1089 51.2536V52.3958C73.1089 52.8878 73.0245 53.3388 72.8556 53.7489C72.6868 54.1589 72.4588 54.4869 72.1718 54.7329C72.4588 54.9672 72.6868 55.2952 72.8556 55.7169C73.0245 56.1269 73.1089 56.5779 73.1089 57.07V59.4071C73.1089 59.6531 73.1089 59.9049 73.1089 60.1627C73.1172 60.4087 73.1384 60.6371 73.1721 60.848C73.2059 61.0471 73.2566 61.217 73.3241 61.3576C73.3916 61.4982 73.4846 61.586 73.6028 61.6211ZM72.4504 52.0971C72.4419 52.1205 72.4378 52.1498 72.4378 52.1849V52.5891C72.4293 52.636 72.425 52.6828 72.425 52.7297C72.425 52.7648 72.425 52.8 72.425 52.8351C72.425 52.8585 72.421 52.8761 72.4124 52.8878C72.4124 52.8995 72.4124 52.9171 72.4124 52.9405V53.046C72.4041 53.0694 72.3998 53.0987 72.3998 53.1338C72.3998 53.1573 72.3955 53.1807 72.3872 53.2041C72.3872 53.2275 72.3829 53.2451 72.3744 53.2568V53.292L72.3618 53.3271C72.3618 53.3271 72.3703 53.3213 72.3872 53.3096V53.292L72.3998 53.2744C72.4081 53.2627 72.4124 53.2568 72.4124 53.2568C72.4124 53.2451 72.4167 53.2334 72.425 53.2217C72.4336 53.1983 72.4419 53.1748 72.4504 53.1514C72.4588 53.1163 72.4673 53.087 72.4757 53.0635C72.4842 53.0401 72.4885 53.0284 72.4885 53.0284C72.4885 53.0167 72.4925 52.9991 72.5011 52.9757C72.5094 52.9522 72.5137 52.9347 72.5137 52.923C72.5137 52.8995 72.518 52.8761 72.5263 52.8527C72.5349 52.8293 72.5391 52.8117 72.5391 52.8C72.5391 52.7883 72.5432 52.7707 72.5517 52.7472C72.5517 52.7238 72.5517 52.7062 72.5517 52.6945C72.5601 52.6711 72.5644 52.6477 72.5644 52.6242C72.5729 52.5774 72.577 52.5305 72.577 52.4837C72.5855 52.4368 72.5938 52.39 72.6024 52.3431C72.6107 52.308 72.615 52.2552 72.615 52.1849C72.615 52.1615 72.615 52.1381 72.615 52.1147C72.6236 52.0912 72.6276 52.0678 72.6276 52.0444V51.4293C72.6276 51.359 72.6236 51.3063 72.615 51.2712V51.2009C72.615 51.1775 72.6107 51.1657 72.6024 51.1657C72.6024 51.1541 72.6024 51.1365 72.6024 51.1131C72.6024 51.0545 72.5938 50.9666 72.577 50.8495C72.5686 50.826 72.5644 50.8026 72.5644 50.7792C72.5644 50.7557 72.5601 50.7323 72.5517 50.7089C72.5517 50.6972 72.5475 50.6913 72.5391 50.6913C72.5391 50.6796 72.5391 50.6679 72.5391 50.6562C72.5391 50.6444 72.5349 50.6386 72.5263 50.6386C72.5263 50.6269 72.5263 50.6152 72.5263 50.6034C72.518 50.58 72.5137 50.5624 72.5137 50.5507C72.5137 50.539 72.5094 50.5215 72.5011 50.498C72.4925 50.4746 72.4885 50.457 72.4885 50.4453C72.4885 50.4336 72.4842 50.416 72.4757 50.3926C72.4673 50.3809 72.4631 50.3692 72.4631 50.3574C72.4631 50.3457 72.4588 50.334 72.4504 50.3223C72.4336 50.2754 72.425 50.252 72.425 50.252C72.4167 50.2403 72.4124 50.2344 72.4124 50.2344C72.4124 50.2227 72.4081 50.211 72.3998 50.1993C72.3912 50.1876 72.3872 50.1759 72.3872 50.1641C72.3786 50.1524 72.3744 50.1407 72.3744 50.129H72.3618C72.3618 50.129 72.366 50.1407 72.3744 50.1641V50.1993C72.3829 50.211 72.3872 50.2344 72.3872 50.2696C72.3872 50.2813 72.3872 50.293 72.3872 50.3047C72.3955 50.3047 72.3998 50.3164 72.3998 50.3399C72.3998 50.375 72.4041 50.4043 72.4124 50.4277V50.5156C72.4124 50.539 72.4124 50.5566 72.4124 50.5683C72.421 50.58 72.425 50.5976 72.425 50.621C72.425 50.7265 72.4293 50.8085 72.4378 50.867V51.1482C72.4462 51.2068 72.4504 51.3005 72.4504 51.4293V52.0971ZM69.8419 53.907C69.8419 53.8484 69.8376 53.784 69.8291 53.7137C69.8291 53.6434 69.8291 53.5731 69.8291 53.5029V53.1163C69.8207 52.8585 69.8165 52.6125 69.8165 52.3782C69.8165 52.1439 69.8122 51.9214 69.8038 51.7105C69.7953 51.6168 69.7912 51.5231 69.7912 51.4293C69.7912 51.3356 69.787 51.2478 69.7784 51.1657C69.7784 51.072 69.7744 50.99 69.7658 50.9198C69.7658 50.8495 69.7658 50.785 69.7658 50.7265C69.7658 50.6679 69.7615 50.6152 69.7532 50.5683C69.7532 50.5215 69.7532 50.4805 69.7532 50.4453V50.3574C69.7446 50.3574 69.7406 50.3633 69.7406 50.375V50.4453C69.7406 50.4805 69.7363 50.5215 69.7278 50.5683C69.7278 50.6152 69.7278 50.6679 69.7278 50.7265C69.7278 50.785 69.7237 50.8495 69.7152 50.9198C69.7152 50.99 69.7152 51.072 69.7152 51.1657C69.7068 51.2478 69.7025 51.3356 69.7025 51.4293C69.7025 51.5231 69.6983 51.6168 69.6899 51.7105C69.6814 51.9214 69.6771 52.1439 69.6771 52.3782C69.6771 52.6125 69.6731 52.8585 69.6645 53.1163V53.5029C69.6645 53.5731 69.6602 53.6434 69.6519 53.7137C69.6519 53.784 69.6519 53.8484 69.6519 53.907V55.5412C69.6519 55.6349 69.6562 55.7052 69.6645 55.7521V56.332C69.6645 56.4608 69.6645 56.5897 69.6645 56.7186C69.6731 56.8357 69.6771 56.9528 69.6771 57.07C69.6771 57.1988 69.6771 57.316 69.6771 57.4214C69.6857 57.5269 69.6899 57.6323 69.6899 57.7377C69.6983 57.8431 69.7025 57.9427 69.7025 58.0364C69.7025 58.1184 69.7068 58.2063 69.7152 58.3C69.7152 58.382 69.7152 58.4582 69.7152 58.5285C69.7237 58.5987 69.7278 58.6632 69.7278 58.7218C69.7278 58.7803 69.7278 58.8389 69.7278 58.8975C69.7363 58.9443 69.7406 58.9795 69.7406 59.0029V59.0908C69.7406 59.1025 69.7446 59.1084 69.7532 59.1084V59.0029C69.7532 58.9795 69.7532 58.9443 69.7532 58.8975C69.7615 58.8389 69.7658 58.7803 69.7658 58.7218C69.7658 58.6632 69.7658 58.5987 69.7658 58.5285C69.7744 58.4582 69.7784 58.382 69.7784 58.3C69.787 58.2063 69.7912 58.1184 69.7912 58.0364C69.7912 57.9427 69.7953 57.8431 69.8038 57.7377C69.8038 57.6323 69.8038 57.5269 69.8038 57.4214C69.8122 57.316 69.8165 57.1988 69.8165 57.07C69.8165 56.9528 69.8165 56.8357 69.8165 56.7186C69.825 56.5897 69.8291 56.4608 69.8291 56.332V55.9454C69.8291 55.8517 69.8333 55.7872 69.8419 55.7521V53.907ZM71.9311 51.3239C71.9311 51.1716 71.9271 50.9842 71.9185 50.7616C71.9102 50.539 71.8805 50.3282 71.8298 50.129C71.7792 49.9298 71.699 49.76 71.5894 49.6194C71.4881 49.4671 71.3362 49.391 71.1336 49.391H70.6775C70.5847 49.4027 70.5046 49.4554 70.4371 49.5491C70.3695 49.6428 70.3358 49.7541 70.3358 49.883V53.8367C70.3358 53.9656 70.3695 54.0769 70.4371 54.1706C70.5046 54.2643 70.5847 54.3112 70.6775 54.3112H71.1336C71.3362 54.3112 71.4881 54.2409 71.5894 54.1003C71.699 53.9597 71.7792 53.7899 71.8298 53.5907C71.8805 53.3798 71.9102 53.169 71.9185 52.9581C71.9271 52.7355 71.9311 52.5481 71.9311 52.3958V51.3239ZM72.7796 60.9534C72.7796 60.9534 72.7755 60.9475 72.7669 60.9358L72.7543 60.9183C72.7458 60.8948 72.7375 60.8714 72.7289 60.848C72.7289 60.8246 72.7206 60.8011 72.7037 60.7777C72.6951 60.7425 72.6868 60.7074 72.6783 60.6723C72.6699 60.6254 72.6614 60.5727 72.653 60.5141C72.6362 60.397 72.6276 60.2857 72.6276 60.1802C72.6193 60.1216 72.615 60.0631 72.615 60.0045C72.615 59.9342 72.615 59.8581 72.615 59.7761V58.8448C72.615 58.7628 72.615 58.6808 72.615 58.5987C72.615 58.5167 72.6193 58.4289 72.6276 58.3352C72.6276 58.2532 72.6276 58.1712 72.6276 58.0892C72.6276 58.0072 72.6236 57.9251 72.615 57.8431V57.5971C72.615 57.48 72.6107 57.398 72.6024 57.3511C72.6024 57.2691 72.5981 57.193 72.5898 57.1227C72.5898 57.0407 72.5855 56.9645 72.577 56.8943C72.5601 56.7302 72.5432 56.5897 72.5263 56.4725C72.518 56.414 72.5094 56.3612 72.5011 56.3144C72.4925 56.2558 72.4799 56.1972 72.4631 56.1387C72.4462 56.0801 72.4336 56.0332 72.425 55.9981C72.4167 55.9629 72.4041 55.9278 72.3872 55.8927C72.3703 55.8575 72.3575 55.8282 72.3491 55.8048C72.3406 55.7814 72.3323 55.7579 72.3237 55.7345C72.3154 55.7345 72.3068 55.7286 72.2985 55.7169C72.2899 55.7169 72.2859 55.7111 72.2859 55.6994L72.2985 55.7169C72.2985 55.7286 72.3028 55.7404 72.3111 55.7521C72.3111 55.7638 72.3111 55.7755 72.3111 55.7872C72.3197 55.7872 72.3237 55.7989 72.3237 55.8224C72.3323 55.8341 72.3365 55.8458 72.3365 55.8575C72.3365 55.8692 72.3406 55.8868 72.3491 55.9102C72.3575 55.9571 72.3703 56.0391 72.3872 56.1562C72.3955 56.2148 72.3998 56.2734 72.3998 56.332C72.4081 56.3905 72.4167 56.4491 72.425 56.5077C72.425 56.5663 72.425 56.6307 72.425 56.701C72.4336 56.7596 72.4378 56.8298 72.4378 56.9118V59.0908C72.4378 59.1376 72.4378 59.1786 72.4378 59.2138C72.4462 59.2489 72.4504 59.2899 72.4504 59.3368C72.4504 59.4188 72.4504 59.5008 72.4504 59.5828C72.4588 59.6531 72.4673 59.7234 72.4757 59.7936C72.4842 59.8639 72.4885 59.9342 72.4885 60.0045C72.4968 60.0748 72.5054 60.1392 72.5137 60.1978C72.5306 60.2681 72.5432 60.3325 72.5517 60.3911C72.5601 60.438 72.5729 60.4907 72.5898 60.5493C72.6067 60.6078 72.6193 60.6547 72.6276 60.6898C72.6362 60.725 72.6488 60.7601 72.6656 60.7952L72.6911 60.8304C72.6994 60.8421 72.7037 60.8538 72.7037 60.8656C72.7037 60.8656 72.708 60.8714 72.7163 60.8831L72.7669 60.9534H72.7796Z" fill="#F4EDE8"/>
<path d="M76.4859 54.0677C76.8605 54.0677 77.1642 54.4891 77.1642 55.009C77.1642 55.5289 76.8605 55.9504 76.4859 55.9504C76.1112 55.9504 75.8075 55.5289 75.8075 55.009C75.8075 54.4891 76.1112 54.0677 76.4859 54.0677Z" fill="#999591"/>
<path d="M33.2964 54.0677C33.671 54.0677 33.9747 54.4891 33.9747 55.009C33.9747 55.5289 33.671 55.9504 33.2964 55.9504C32.9217 55.9504 32.618 55.5289 32.618 55.009C32.618 54.4891 32.9217 54.0677 33.2964 54.0677Z" fill="#999591"/>
</svg>
